<?xml version="1.0" encoding="UTF-8"?><svg xmlns="http://www.w3.org/2000/svg" xmlns:xlink="http://www.w3.org/1999/xlink" height="454.8" preserveAspectRatio="xMidYMid meet" version="1.0" viewBox="0.0 -0.3 294.1 454.8" width="294.1" zoomAndPan="magnify"><g id="change1_1"><path d="M166.6,25.1c-0.5,0-0.9,0-1.4,0c-0.2,0-0.5,0-0.7,0c-0.2,0-0.4,0-0.7,0c-0.4,0-0.8,0.1-1.2,0 c-0.4,0-0.7,0-1.1-0.1C163.5,24.5,165.1,24.5,166.6,25.1z M166.6,25.1C166.6,25.1,166.6,25.1,166.6,25.1 C166.6,25.1,166.6,25.1,166.6,25.1C166.6,25.1,166.6,25.1,166.6,25.1z M188.4,325.6c0.1,0,0.1-0.1,0.2-0.1 C188.5,325.5,188.4,325.6,188.4,325.6z M293.4,189.2c-0.7-10-2-19.8-3.5-27.9c-0.4-2-0.7-4-1.1-5.8c-0.4-1.8-0.7-3.5-1-5 c-0.7-3.1-1.2-5.6-1.6-7.4c-0.7-1.8-1.4-3.8-2-5.9c-0.3-1-0.7-2.1-1-3.1c-0.2-0.5-0.3-1-0.5-1.6l-0.5-1.6c-1.3-4.2-2.6-8.4-4.2-11.9 l0.5,0.7c-0.4-1-0.9-2.5-1.7-4.5c-0.4-1-0.8-2.1-1.2-3.2c-0.4-1.2-0.9-2.4-1.4-3.8c-2.1-5.3-4.7-11.7-7.7-18.1 c-3-6.3-6.2-12.6-9.2-17.7c-0.4-0.6-0.7-1.3-1.1-1.9c-0.4-0.6-0.7-1.2-1.1-1.8c-0.7-1.1-1.3-2.2-1.9-3.1c-0.6-0.9-1.2-1.8-1.6-2.5 c-0.5-0.7-0.9-1.4-1.3-1.9l0.6,1.2c-2.6-3.4-3.5-4.9-4.2-6.4c-0.4-0.7-0.7-1.4-1.1-2.3c-0.2-0.4-0.5-0.9-0.8-1.5 c-0.2-0.3-0.3-0.6-0.5-0.9c-0.2-0.3-0.4-0.6-0.6-1c-0.2,0.7-1.5-0.4-2.9-1.8c-0.7-0.7-1.5-1.6-2.3-2.3c-0.4-0.4-0.7-0.8-1-1.1 c-0.3-0.3-0.6-0.7-0.8-0.9l0.2-0.1c-0.7-0.8-1.6-1.8-2.7-2.9c-0.6-0.6-1.2-1.2-1.8-1.8c-0.3-0.3-0.6-0.6-0.9-1c-0.3-0.3-0.7-0.6-1-1 c-0.7-0.7-1.4-1.3-2-2c-0.7-0.7-1.4-1.3-2.1-2c-1.4-1.3-2.8-2.6-4-3.8l0.6-0.2c-0.3-0.2-0.6-0.5-0.9-0.7c-0.3-0.3-0.6-0.5-0.9-0.8 c-0.6-0.6-1.3-1.2-2-1.8c-0.3-0.3-0.7-0.6-1.1-1c-0.4-0.3-0.7-0.7-1.1-1c-0.8-0.7-1.5-1.4-2.3-2c-3.1-2.7-6.1-5.1-7.9-6.4 c-2-1.5-4.3-3.2-6.9-4.9c-2.6-1.7-5.5-3.4-8.7-5c-3.2-1.5-6.7-2.9-10.5-3.8c-3.7-0.9-7.7-1.4-11.5-1.4c-3.3-0.6-6.8-0.9-10.4-0.8 l-1.5,0.5c0,0,0,0.1-0.1,0.3c-0.1,0.2-0.2,0.4-0.3,0.7c-0.3,0.6-0.6,1.6-0.9,2.7c-0.1,0.5-0.3,1.1-0.4,1.8c-0.1,0.6-0.2,1.3-0.3,2 c-0.1,1.4-0.1,2.8,0.1,4.2c0.2,1.4,0.6,2.8,1.1,4.1c0.3,0.6,0.6,1.3,0.9,1.8c0.2,0.3,0.4,0.6,0.6,0.8c0.2,0.3,0.4,0.5,0.6,0.8 c0.8,1,1.8,1.9,2.8,2.6c0.3,0.2,0.5,0.3,0.8,0.5c0.3,0.2,0.6,0.3,0.9,0.4c0.6,0.2,1.2,0.5,1.9,0.7l-0.1,0.6c0.3-0.1,0.7-0.1,1-0.1 c0.3-0.1,0.7-0.1,1-0.1c0.6,0,1.1,0.1,1.6,0c0.5,0,0.8,0,1.1,0c0.3,0,0.5,0,0.6,0c0.1,0,0.2,0.1,0.1,0.2l-0.4-0.1l-0.4,0l-0.9-0.1 l-0.8,0c-0.1,0-0.3,0-0.4,0l-0.4,0c0.6,0,1,0.1,1.1,0.1c0.2,0.1,0.2,0.1,0,0.2c-0.1,0.1-0.3,0.1-0.6,0.2c-0.2,0.1-0.5,0.2-0.7,0.3 c0.2,0,0.5,0,0.7,0c0.2,0,0.5,0,0.7,0.1c0.1,0,0.2,0,0.3,0c0.1,0,0.2,0,0.3,0.1c0.2,0,0.4,0.1,0.6,0.1c0.5-0.2-0.3-0.3-0.7-0.4 c0.3,0,0.7-0.1,1.1-0.1c0.4,0,0.8-0.1,1.3-0.1c0.4,0,0.9,0,1.3,0.1c0.5,0.1,0.9,0.2,1.3,0.3c0.7,0.2,1,0.3,1.2,0.5 c0.2,0.1,0.2,0.3,0.2,0.4c0,0.1,0.1,0.3,0.3,0.4c0.2,0.2,0.6,0.3,1.4,0.6c4.1,1.4,8.3,3.7,12.3,6.5c4,2.8,7.9,6,11.6,9.6l0.7,0.7 c0.2,0.2,0.5,0.5,0.7,0.7l1.4,1.4l0.7,0.7l0.7,0.7l1.4,1.5c1.8,2,3.7,4,5.4,6.1c3.6,4.1,7,8.4,10.3,12.9c0.1,0.6-0.2,0.1-0.7-0.4 c0.5,0.6,1,1.3,1.5,2c0.5,0.7,1,1.3,1.5,1.9c0.5,0.7,0.9,1.3,1.4,1.9c0.5,0.6,0.9,1.3,1.3,1.9c0.9,1.3,1.7,2.6,2.6,3.8 c0.4,0.6,0.8,1.3,1.3,1.9c0.4,0.6,0.8,1.3,1.3,1.9c0.3,0.8,0.5,1.3,0.6,1.8c0.1,0.4,0.1,0.7,0.1,1c0-0.1,0.3,0.2,0.7,0.9 c0.5,0.7,1.2,1.8,1.9,3.2c1.6,2.7,3.7,6.5,5.6,10.4c0.5,1,1,2,1.4,2.9c0.5,1,0.9,1.9,1.4,2.9c0.8,1.9,1.7,3.7,2.3,5.2 c0.3,0.8,0.6,1.5,0.9,2.1c0.3,0.6,0.5,1.2,0.7,1.7c0.4,0.9,0.6,1.5,0.6,1.6l1.1,0c2.5,6.3-0.4,2.3,2,8c0.6,0.4,1,1.3,1.5,2.3 c0.2,0.5,0.4,1.1,0.6,1.7c0.2,0.6,0.4,1.2,0.5,1.8c0.2,0.6,0.3,1.2,0.5,1.8c0.2,0.6,0.3,1.2,0.5,1.7c0.3,1,0.6,1.9,1,2.3 c-0.1,0,0.7,2.9,0.2,2.9c1.1,0.7,1.1,3,1.8,4.8c0.4,0.6,0.1-0.6,0.2-1.1c0.5,1.4,1,2.8,1.5,4.2c0.1,0.9,0.1,1.4-0.1,1.6 c-0.1,0.1-0.4-0.2-0.6-1.1c0.2,0.7,0.4,1.6,0.6,2.6c0.2,1,0.5,2.2,0.8,3.5c0.3,1.3,0.6,2.7,0.9,4.2c0.3,1.5,0.7,3.2,1,4.9 c1.3,6.9,2.6,15.1,3.4,23.3c0.3,4.1,0.6,8.2,0.7,12c0,1,0,1.9,0.1,2.9c0,0.9,0,1.9,0,2.8c0,1.8-0.1,3.6-0.2,5.3 c-0.3,6.7-1.1,12-1.5,14.9c0.4-0.7,0.7-1.9,0.9-3.1c0.1-0.3,0.1-0.6,0.2-0.9c0.1-0.3,0.1-0.6,0.2-0.9c0.2-0.5,0.4-1,0.7-1.3 c0,0.8,0,1.5,0,2.1c-0.1,0.6-0.2,1.1-0.3,1.5c-0.2,0.9-0.3,1.6-0.2,2.3c-0.4,0.2-0.7,0.8-0.9,1.5c-0.3,0.7-0.5,1.5-0.7,2.4 c-0.1,0.4-0.2,0.9-0.3,1.3c-0.1,0.4-0.3,0.9-0.4,1.3c-0.3,0.8-0.7,1.5-1.2,2l0.6,1c-0.3,0.4-0.6,0.9-0.9,1.3 c-0.2,0.8-0.3,1.5-0.5,2.2c-0.2,0.6-0.3,1.2-0.4,1.7c-0.1,0.5-0.2,0.9-0.3,1.3c-0.1,0.4-0.2,0.7-0.3,0.9c-0.3,1.1-0.4,1.4-0.5,1.6 c-0.1,0.3-0.2,0.5-0.6,1.3c-0.2,0.4-0.4,1-0.8,1.8c-0.4,0.8-0.8,1.8-1.4,3.2c-0.3,0.8-0.6,1.5-0.9,2.2c-0.3,0.7-0.6,1.4-0.8,2 c-0.5,1.3-0.9,2.4-1.3,3.4c-0.8,2-1.5,3.6-2.6,5.1c0.4-0.5,1.3-1.2,0.6,0.3c-0.4,0-0.9,1.1-1.5,2.2c-0.3,0.6-0.6,1.2-0.9,1.7 c-0.3,0.5-0.6,0.8-0.9,0.9c-0.8,1.6-4.3,6.3-2.4,5.2c-0.5,0.3-1.5,1.4-2.3,2.2c-0.8,0.7-1.2,1.1-0.4-0.3c-0.6,0.7-1.1,1.4-1.6,2 c-0.5,0.6-1,1.2-1.3,1.8c0.5-0.5,1.1-1.1,1.6-1.6c-0.4,0.6-0.9,1.2-1.3,1.7c-0.4,0.5-0.8,1-1.2,1.5c-0.8,0.9-1.5,1.7-2.2,2.5 c-0.7,0.8-1.3,1.5-1.9,2.2c-0.6,0.7-1.1,1.5-1.6,2.4l1.8-1.4c-0.6,0.7-1.2,1.3-1.7,1.9c-0.6,0.6-1.1,1.1-1.6,1.6 c-0.5,0.5-1,0.9-1.5,1.2c-0.5,0.3-0.9,0.5-1.3,0.6c0.8-1,1.6-1.9,2.4-2.9c-2,2.2-3.7,3.9-5.3,5.6c-0.8,0.8-1.6,1.6-2.3,2.5 c-0.8,0.8-1.6,1.7-2.4,2.7l1.3-1.2c-0.3,0.3-0.6,0.7-1,1.2c-0.4,0.5-0.9,1-1.4,1.5c-1.1,1.1-2.4,2.4-3.9,3.9 c-3,2.9-6.9,6.2-10.8,9.4c-0.5,0.4-1,0.8-1.5,1.2c-0.5,0.4-1,0.8-1.5,1.2c-0.5,0.4-1,0.8-1.5,1.2c-0.5,0.4-1,0.7-1.5,1.1 c-1,0.7-1.9,1.5-2.8,2.2c-0.9,0.7-1.8,1.3-2.7,2c-0.8,0.6-1.6,1.2-2.4,1.8c-0.7,0.5-1.4,1-2.1,1.5c-1.2,0.9-2.2,1.7-2.8,2.2 c0.9-0.3,1.8-0.6,2.8-0.8l-2.1,1.6l-2.1,1.6c0.5-0.4,0.8-2.8,1.3-3.3c-1.2,0.7-3,1.8-5.2,3.1c-2.3,1.3-5.1,2.9-8.3,4.6 c-6.4,3.4-14.2,7.1-22.2,10.4c-8,3.3-16.1,6.2-22.9,8.2c-3.4,1-6.5,1.9-9,2.5c-1.3,0.3-2.4,0.6-3.4,0.8c-1,0.2-1.8,0.4-2.4,0.5 c-4.2,0.6-1-1-1-1.1c-2.4,0.7-2.9,1-3.3,1.3c-0.4,0.2-0.7,0.4-2.8,0.9c-1.2,0.1,0.1-0.6,0.7-0.9c-0.9,0.2-1.8,0.4-2.5,0.5 c-0.7,0.1-1.1,0.2-1.2,0.4c1.2-0.1,1.6,0.1,1.8,0.4c0.2,0.3,0.3,0.7,0.9,0.9c-0.9,0.2-1.8,0.4-2.7,0.5l-2.7,0.5l0.1-0.6 c-0.6,0.1-1.3,0.7-2.5,1.2c-0.6,0.3-1.4,0.6-2.3,0.9c-0.9,0.3-2.1,0.5-3.4,0.6c-9.2,1.2-19.2,2.4-28.5,2.7c0.1-0.3,2.1-0.7,4-1 c-1.2,0-3.1,0.3-4.3,0.1c2.3,0.5-3.9,0.5-2.1,0.7c-1.7,0.4-3.5,0.7-5.4,0.8c-1.9,0.1-3.8,0.2-5.7,0.1c-1.5,0-3.1-0.1-4.5-0.1 c0.4-0.3,0.8-0.7,1.2-1c1.2-1.1,2.4-2.2,3.4-3.2c0.5-0.5,0.9-0.9,1.3-1.3c0.3-0.4,0.6-0.7,0.8-1c-0.7-0.2-0.9,0.6-1.7,0.2 c0-0.8,0.8-0.6,0.5-1.1c1.2,0.8,1.2-0.8,2.6-0.2l-0.5-0.7l0.6,0.1c0.6-1.3,0.7-1.5,0.8-1.6c0.1-0.1,0.3,0,1.1-0.9 c0.8-1.1,0.4-2.4,1.2-2.7c-0.1,0-0.6-0.1-0.5-0.4c0.6,0.4,0.2-1.1,0.9-0.7c0.2-0.3,1-1.2,0-1.5c0.2,0.1,0.6,0,0.8-0.1 c0.3-0.1,0.4,0,0.4,0.3c0.2-0.3,0.6-0.4,0.6-0.8l-0.5,0.2c0.6-1,1.6-1,1.4-2.2l-0.6,0.1c0.4-0.6,0.7-1.1,1.6-0.7l-0.2,0.8 c0.7-0.9,1.1-1.5,1.3-2.6l-0.2,0.3c0-0.2,0.1-0.5,0.1-0.8c0.1-0.3,0.2-0.7,0.4-1.1c0.3-0.8,0.7-1.7,1-2.6c0.4-0.9,0.7-1.8,1-2.6 c0.2-0.8,0.3-1.5,0.3-1.9l-0.9,0l0-1.2c-0.1,0.1,1.4,1.5,1.5,1.7c0.3-0.5,0.8-1.3,1.5-2.5c0.4-0.6,0.7-1.2,1.1-1.8 c0.4-0.7,0.8-1.4,1.2-2.1c0.8-1.4,1.6-2.8,2.3-3.9c0.7-1.1,1.2-2,1.6-2.4c0.7-0.5,1.1,0.5,1.2,0.5c0.2-1-0.5-0.7,0-1.4 c0.2-0.1,0.5,0.3,0.5,0.5c0.1-0.4,0.5-0.5,0.2-0.7c-0.5,0.3-1.2-0.4-1.8-0.5l0.6-0.9l0.5,0.3c0.1-0.2-1.1-1.3-0.3-2 c1-1.4,1.7-3.1,2.6-4.6c0.3,0.2,0.3,0.6,0.3,1c0.1-0.2,0.2-0.5,0.5-0.6c-0.7,0.1,0-0.8-0.4-0.7c-0.3-0.9-0.1-1.5,0.2-2.2 c0.3-0.6,0.7-1.2,0.5-1.9c-0.6-0.3-5.3-3.2-10.1-6c-4.8-2.8-9.6-5.5-10.3-5.9c0.2-0.3,0.3-0.5,0.5-0.5c-0.4-0.1-0.8,0.4-0.7,0.7 l0.7,0.4c0,0.8-0.5-0.1-0.8,0.6c-0.6-0.2-0.5-0.9-0.3-1.4c-0.3,0.4-0.9,0.7-0.4,1.2c-0.5,0.3-0.7-0.4-1.2,0c0,0.4,0.4,1.2-0.2,1.5 l-0.1-0.1c-1.1,0.7,0.2,2-0.9,2.6l-0.1-0.2c-0.5,0.1-0.4,1-1,1.4c0.2-0.1,0.7,0,0.6,0.4c-0.7,0.5-0.6,1.1-1.3,1.4l0.3,0.8 c-0.1,0.1-0.2,0.3-0.3,0.5c-0.1,0.2-0.2,0.4-0.4,0.6c-0.3,0.5-0.5,1-0.9,1.7c-0.6,1.2-1.3,2.7-2.1,4.2c-0.4,0.7-0.8,1.5-1.1,2.2 c-0.4,0.7-0.7,1.4-1.1,2c-0.7,1.2-1.3,2.2-1.6,2.8l0-0.1c-0.3,0.4-0.5,0.9-0.9,1.5c-0.3,0.5-0.7,1.1-1.1,1.7 c-0.4,0.6-0.8,1.2-1.2,1.8c-0.4,0.6-0.8,1.3-1.3,1.9c-0.9,1.3-1.8,2.6-2.6,3.8c-0.2,0.3-0.4,0.6-0.6,0.9c-0.2,0.3-0.4,0.6-0.6,0.8 c-0.4,0.5-0.7,1.1-0.9,1.5c-0.9,0.1-1.4,0.9-2,1.3c0.4-0.1,0.7,0.3,0.5,0.5c-1.5,1.5,0.2,0.4-1,2.1c-0.3,0.5-1,1.4-1.8,2.3 c-0.4,0.5-0.9,0.9-1.4,1.4c-0.5,0.5-1,1-1.6,1.5c-0.5,0.5-1.1,1-1.6,1.4c-0.5,0.4-1.1,0.8-1.6,1.2c-1,0.7-1.8,1.3-2.3,1.6 c-0.1,0.4-0.2,0.7-0.4,1c-0.2,0.3-0.4,0.5-0.7,0.7c-0.5,0.4-1,0.8-1.2,1.4l-0.1-0.2c-0.2,0.3-0.7,0.7-1.3,1.2 c-0.3,0.3-0.7,0.6-1.1,0.9c-0.4,0.3-0.8,0.6-1.2,0.9c-0.8,0.6-1.7,1.2-2.4,1.7c-0.3,0.3-0.7,0.5-0.9,0.7c-0.3,0.2-0.5,0.4-0.6,0.5 l0.2,0c-0.6,1.2-1.1,0.3-2.1,0.6c0.7,0.8,0.2,1.9,0,2.2l-0.1-0.2c-0.4,0.5-1,2.1-1.7,2.8l-0.3-0.5c-0.2,0.6-0.7,1-1.3,1.4 c-0.2-0.1-0.4-0.1-0.6-0.1c-0.4-0.1-0.8-0.1-1.2-0.1l-0.7-1l-0.8-1l-0.3,0.1c0,0-0.5,1.2-1.1,3c-0.2,0.6-0.4,1.2-0.6,1.9 c-0.2,0.2-0.3,0.3-0.5,0.5l-1.9-0.8l-0.1,0.2c0,0,0.5,1.1,1.4,2.9c0,0,0.1,0.1,0.1,0.1c-0.2,0.7-0.4,1.4-0.6,2.2 c-0.7,2.7-1.3,5.5-1.6,8c-0.3,2.5-0.4,4.6,0,5.7l-0.2,0.6c0.2,0,0.3,0,0.5,0c0.5,0.4,1-0.1,0.8,0.4l-0.8-0.3 c0.6,0.3,0.1,0.5-0.2,0.8c0.2,0.1,0.5,0.2,0.6,0.5c0.2-0.2,0-0.3-0.1-0.4c0.4-0.1,1-0.5,1.3-0.2c0.6,0.2-0.2,0.9,0.5,1.2 c1.8,0.8,3.4,1.7,5.1,2.7c1.6,1,3.3,2,5.1,3c0,0.3-0.1,0.2-0.3,0.2c1.2,0.4,2,1.1,3.1,1.5c0.1,0.4,0,0.7-0.1,1 c0.1-0.3,1.4,0.5,2.8,1.4c0.3,0.2,0.7,0.5,1,0.7c0.3,0.2,0.6,0.5,0.9,0.7c0.5,0.4,0.8,0.7,0.8,0.7l0.7-0.8c1,0.8-0.5,1.2,0.6,1.7 c0.7-0.4,1-0.1,1.3,0.4c0.3,0.4,0.5,0.9,1,0.8c-0.1,0.1,0.3,0.5,0,0.8c0.7-0.5,0.6,0.3,1,0.4c0.3-0.1,0.1-0.2,0.2-0.5l0.8,0.4 c0.1,0.4-0.2,0.8-0.5,0.6c0.8,0.9,3,3.4,5.4,6c2.3,2.6,4.8,5.3,5.8,6.1c0.2-0.7-0.7-1-0.2-1.9c0.9,0.1,0.6,0.9,1.2,0.7 c-0.9,1.2,0.8,1.4,0.1,2.8L40,416l-0.1,0.6c2.8,1.7,0.8,0.2,2.6,2.4c1.2,1.1,2.5,0.9,2.9,1.9c0-0.2,0.1-0.7,0.5-0.5 c-0.5,0.5,1.1,0.5,0.8,1.1c0.4,0.3,1.2,1.3,1.6,0.3c-0.2,0.5,0.5,1.5-0.3,1.3c0.3,0.3,0.4,0.7,0.8,0.8l-0.2-0.6c1.1,0.9,1,2,2.3,2.1 l-0.1-0.6c0.6,0.6,1.2,1,0.7,1.9l-0.8-0.4c1,1,1.6,1.6,2.8,2.1l-0.3-0.3c0.9,0.2,2.8,1.6,4.8,3c2,1.4,4,2.7,4.9,2.7l0.1-1l1.3,0.4 c-0.1-0.1-1.8,1.1-2,1.1c1,0.9,4,3.6,7.1,6.2c1.6,1.3,3.2,2.6,4.5,3.7c0.7,0.5,1.3,1,1.8,1.4c0.5,0.4,0.9,0.7,1.1,1 c0.6,0.9-0.6,1.1-0.6,1.1c1.2,0.5,0.9-0.3,1.7,0.4c0.2,0.3-0.4,0.4-0.6,0.4c0.4,0.2,0.6,0.7,0.9,0.4c-0.3-0.6,0.4-1.2,0.6-1.8 c0.4,0.3,0.7,0.6,1.1,0.9l-0.4,0.4c0.2,0.2,1.5-0.9,2.5,0.1c1.7,1.5,4,2.6,5.9,3.8c-0.2,0.3-0.7,0.2-1.3,0.2 c0.3,0.2,0.7,0.3,0.9,0.7c-0.2-0.8,1.1,0.1,0.8-0.3c1.1-0.2,2,0.2,2.8,0.7c0.8,0.4,1.6,0.9,2.5,0.8c0.3-0.6,3.4-5.2,6.2-10 c2.8-4.8,5.4-9.7,5.7-10.4c0.3,0.1,0.6,0.3,0.6,0.5c0.1-0.4-0.5-0.8-0.8-0.7l-0.4,0.7c-0.8,0,0-0.5-0.7-0.8c0.1-0.3,0.3-0.4,0.6-0.4 c0.3,0,0.6,0.1,0.9,0.1c-0.2-0.1-0.4-0.4-0.6-0.5c-0.2-0.1-0.4-0.2-0.6,0.1c-0.4-0.5,0.4-0.7-0.1-1.2c-0.5,0-1.3,0.3-1.6-0.2 l0.1-0.1c-0.4-0.6-0.9-0.6-1.5-0.6c-0.5,0-1,0-1.4-0.6l0.2-0.1c-0.2-0.5-1.1-0.5-1.5-1.2c0.1,0.2,0,0.7-0.4,0.6 c-0.5-0.8-1.2-0.8-1.5-1.5l-0.9,0.2c-0.2-0.1-0.3-0.2-0.6-0.4c-0.2-0.1-0.5-0.3-0.7-0.5c-0.5-0.3-1.2-0.8-1.8-1.2 c-1.4-0.9-3-2-4.6-3.2c-3.2-2.4-6.4-5.1-7.7-6.2l0.2,0c-2-1.7-4.9-4.5-7.9-7.5c-3-2.9-6-6-8.4-7.8c-0.1-1.1-1.1-1.9-1.6-2.7 c0.2,0.6-0.3,0.7-0.6,0.4c-1.9-2.2-0.5,0.2-2.7-1.8c-1.4-1-4.2-4.1-7-7.2c-0.1-0.1-0.2-0.2-0.2-0.3c0.4,0,0.8,0,1.2,0 c1.6-0.1,3.1-0.2,4.6-0.4c0.7-0.1,1.5-0.1,2.2-0.2c0.7-0.1,1.5-0.2,2.2-0.2c1.5-0.1,3.1-0.1,4.9-0.1c-0.3,0.1-0.5,0.2-0.8,0.3 c1.3,0.1,3.2,0,5.3-0.2c1.1-0.1,2.2-0.2,3.4-0.3c1.2-0.1,2.3-0.1,3.5-0.1c-1.3,0-2.5-0.4,0.2-0.7c2.6,0,4.9-0.3,6.9-0.5 c2-0.2,3.9-0.4,5.8-0.4c0.6-0.2,1.2-0.4,1.8-0.6l1.8-0.6c4.6-0.6,12.4-2,21.8-4.2c9.4-2.2,20.3-5.4,31-9.2 c10.7-3.8,21.1-8.4,29.8-12.6c8.7-4.3,15.6-8.3,19.6-10.6l-0.6,0.5c6.1-3.6,13.6-8.3,21.5-14c8-5.7,16.5-12.5,24.4-20 c4-3.7,7.8-7.7,11.4-11.7c3.6-4,7-8.1,10-12.2c3.1-4.1,5.8-8.1,8.2-12c2.4-3.9,4.4-7.6,6.1-11c0.3-0.5,0.7-1,1-1.5 c0.3-0.5,0.7-1.1,1-1.7c0.3-0.6,0.7-1.2,1-1.8c0.2-0.3,0.3-0.6,0.5-0.9c0.2-0.3,0.3-0.6,0.5-1c0.6-1.3,1.2-2.6,1.8-3.8 c0.5-1.3,1.1-2.5,1.6-3.6c-0.6,1.2-1,1.6-1,1.4c-0.1-0.2,0.1-1,0.5-1.9c0.3-0.9,0.6-1.6,0.9-2.3c0.2-0.7,0.4-1.3,0.6-1.8 c0.4-1,0.6-1.7,0.7-2.2c0.3-1,0.3-1.1,0.2-1.3c0-0.2-0.1-0.3,0.2-1.3c0.1-0.5,0.3-1.2,0.6-2.3c0.1-0.5,0.3-1.1,0.5-1.9 c0.2-0.7,0.3-1.5,0.6-2.4c0.2-1.1,0.5-2.3,0.8-3.7c0.3-1.4,0.6-3,0.9-4.7c0.2-0.9,0.3-1.8,0.4-2.7c0.1-0.9,0.3-1.9,0.4-2.9 c0.2-1,0.3-2,0.4-3.1c0.1-1,0.2-2.1,0.4-3.2C293.9,209.4,294.1,199.2,293.4,189.2z M252,261.2c0,0.1-0.1,0.1-0.1,0.2 C251.9,261.3,252,261.3,252,261.2z M58.3,297.8c0.1-0.1,0.1-0.2,0.1-0.4C58.4,297.5,58.4,297.7,58.3,297.8z M66.9,335.5 C66.9,335.5,66.9,335.5,66.9,335.5C67,335.5,67,335.5,66.9,335.5z M58.6,351.2C58.6,351.2,58.6,351.2,58.6,351.2 C58.6,351.2,58.6,351.2,58.6,351.2z M0,384.8c0.2,0.7,0.6,0.8,1.1,1.1C0.9,385.1,0.5,384.8,0,384.8z M1.1,385.8 C1.1,385.8,1.1,385.8,1.1,385.8C1.1,385.8,1.1,385.8,1.1,385.8C1.1,385.8,1.1,385.8,1.1,385.8z M105.5,433.4 c0.1,0.1,0.2,0.1,0.4,0.1C105.8,433.5,105.6,433.4,105.5,433.4z M62.1,434.3C62.1,434.3,62.1,434.2,62.1,434.3 C62.1,434.3,62.1,434.3,62.1,434.3z M45.3,420.9C45.3,420.9,45.3,420.9,45.3,420.9C45.3,420.9,45.3,420.9,45.3,420.9z" fill="#202020"/></g></svg>