<?xml version="1.0" encoding="UTF-8"?><svg xmlns="http://www.w3.org/2000/svg" xmlns:xlink="http://www.w3.org/1999/xlink" height="1437.0" preserveAspectRatio="xMidYMid meet" version="1.0" viewBox="103.7 533.3 2325.2 1437.0" width="2325.2" zoomAndPan="magnify"><g id="change1_2"><path d="M2313.41,1843.01c-7.75,27.01-20.31,62.61-32.8,73.28c-40.9,35.04-223.62,40.76-282.04,41.67 c-9.63,0.21-19.12-1.81-27.57-6.42c-9.98-5.44-27.71-11.59-53.32-7.33c-41.88,6.98-640.72,13.96-640.72,13.96h-6.98 c0,0-607.21-6.98-649.09-13.96c-25.61-4.26-43.34,1.88-53.32,7.33c-8.38,4.61-17.94,6.63-27.57,6.42 c-58.42-0.91-241.14-6.63-282.04-41.67c-12.49-10.68-22.19-32.31-29.87-59.33c36.36,27.92,179.93,41.88,179.93,41.88 s656.07,20.94,858.47,27.92s683.99-34.9,823.58-27.92c139.59,6.98,209.38-41.88,209.38-41.88 C2303.43,1856.62,2309.99,1842.66,2313.41,1843.01z" opacity=".09"/></g><g id="change1_3"><path d="M360.31,1804.01l276.94,52.75c0.62,0.12,1.22-0.21,1.41-0.8c2.61-8,21.31-60.91,60.64-68 c1.34-0.24,1.3-2.21-0.04-2.46l-341.79-64.49c-1.54-0.29-2.11,1.94-0.62,2.42l252.35,82.01c1.37,0.45,1.03,2.48-0.42,2.44 l-248.21-6.36C359.03,1801.49,358.79,1803.72,360.31,1804.01z" opacity=".06"/></g><g id="change1_4"><path d="M2175.6,1804.01l-276.94,52.75c-0.62,0.12-1.22-0.21-1.41-0.8c-2.61-8-21.31-60.91-60.64-68 c-1.34-0.24-1.3-2.21,0.04-2.46l341.79-64.49c1.54-0.29,2.11,1.94,0.62,2.42l-252.35,82.01c-1.37,0.45-1.03,2.48,0.42,2.44 l248.21-6.36C2176.88,1801.49,2177.12,1803.72,2175.6,1804.01z" opacity=".06"/></g><g><g id="change2_2"><path d="M2404.01,1856.79l17.67-35.2c2.8-5.59,3.87-11.88,3.05-18.08l-54.77-417.01c-0.98-7.47-4.63-14.34-10.27-19.33 l-16.58-14.67L2404.01,1856.79z" fill="#e5e5e5" stroke="#000" stroke-miterlimit="10" stroke-width="6.56"/></g><g id="change1_12"><path d="M2358.19,1935.45l-234.09,30.87c-30.1,3.97-57.72-17.21-61.69-47.31l-70.37-533.59c-3.97-30.1,17.21-57.72,47.31-61.69 l247.37-32.62c30.1-3.97,57.72,17.21,61.69,47.31l68.62,520.31C2421.97,1896.16,2395.62,1930.51,2358.19,1935.45z"/></g></g><g><g id="change2_1"><path d="M128.57,1856.79l-17.67-35.2c-2.8-5.59-3.87-11.88-3.05-18.08l54.77-417.01c0.98-7.47,4.63-14.34,10.27-19.33 l16.58-14.67L128.57,1856.79z" fill="#e5e5e5" stroke="#000" stroke-miterlimit="10" stroke-width="6.56"/></g><g id="change1_1"><path d="M175.48,1935.45l234.09,30.87c30.1,3.97,57.72-17.21,61.69-47.31l70.37-533.59c3.97-30.1-17.21-57.72-47.31-61.69 l-247.37-32.62c-30.1-3.97-57.72,17.21-61.69,47.31l-68.62,520.31C111.69,1896.16,138.04,1930.51,175.48,1935.45z"/></g></g><g id="change3_1"><path d="M397.03,1951.12c-59.72-5.85-118.09-16.11-139.07-34.09c-10.37-8.88-18.8-25.27-25.77-46.03 c-1.43-4.27-2.79-8.7-4.11-13.31c-1.4-4.74-2.64-9.62-3.9-14.71c-19.26-79.02-24.14-191.87-29.04-226.07 c-6.98-48.86,13.96-397.83,27.93-411.8c3.48-3.48,14.23-13.39,28.54-26.44c32.6-29.59,83.33-75.1,106.15-95.55 c5.93-5.32,12.7-9.64,20.32-12.07c14.94-4.9,33.07-20.26,41.95-28.35c2.24-2.03,1.11-5.64-1.89-6.06 c-31.81-4.19-157.66-20.87-188.1-26.95c-27.95-5.59-20.07-38.05-8.65-61.5c2.83-5.83,5.87-11.1,8.65-15.27 c13.96-20.95,83.77-48.86,118.66-48.86c17.04,0,30.76,28.25,40.34,57.2c6.45,19.49,11.04,39.31,13.47,50.98 c1.26,6.14,6.64,10.48,12.84,10.48h21.64c5.59,0,10.62-3.56,12.43-8.88c15.65-45.34,95.07-249.7,166-341.61 c6.56-8.53,13.08-16.11,19.45-22.48C718.63,546,1263,542.06,1263,542.06s542.34,1.99,626.11,85.74 c7.27,7.27,14.83,16.07,22.59,26.13c72.54,93.85,162.08,295.15,177.46,339.91c1.82,5.32,6.85,8.88,12.43,8.88h21.64 c6.2,0,11.57-4.34,12.91-10.48c2.26-10.71,6.29-28.29,11.94-46.2c9.58-30.51,23.85-61.98,41.8-61.98 c34.89,0,104.7,27.91,118.66,48.86c2.03,3.04,4.21,6.68,6.33,10.69c12.53,23.57,23.49,60.12-6.33,66.07 c-30.43,6.08-156.29,22.76-188.1,26.95c-2.95,0.42-4.13,4.04-1.89,6.06c8.88,8.09,27.01,23.45,42.03,28.35 c7.54,2.43,14.31,6.75,20.24,12.07c32.81,29.38,123.33,110.63,134.69,121.99c13.96,13.96,34.91,362.94,27.93,411.8 c-5.17,36.36-10.41,161.85-32.88,240.78c-2.41,8.46-5.03,16.39-7.88,23.62c-6.22,15.86-13.47,28.37-22.06,35.71 c-20.55,17.6-76.9,27.8-135.3,33.71c-57.81,5.85-117.67,7.5-146.74,7.96c-9.62,0.21-19.11-1.82-27.57-6.43 c-9.99-5.43-27.7-11.57-53.31-7.33c-41.89,6.98-640.72,13.96-640.72,13.96h-6.98c0,0-607.21-6.98-649.1-13.96 c-25.61-4.25-43.33,1.89-53.31,7.33c-8.38,4.61-17.94,6.64-27.57,6.43C511.58,1958.25,453.69,1956.66,397.03,1951.12" fill="#90e0ef" stroke="#000" stroke-miterlimit="10" stroke-width="17.493"/></g><path d="M306.81,1337c0,0-48.86-34.9-69.79-27.92c-20.94,6.98-27.92,0-27.92,0" fill="none" stroke="#000" stroke-miterlimit="10" stroke-width="10.933"/><g id="change4_1"><path d="M335.74,1808.78c-14.23-24.14-49.07-88.09-50.37-137.71c-0.19-7.24,5.22-12.26,12.39-11.16 c39.77,6.12,167.03,24.96,190.52,19.08c22.67-5.67,54.54-11.33,69.46-24.48c4.43-3.9,2.3-11.2-3.53-12.1 c-43.88-6.77-209.68-32.02-287.14-39.38c-4.99-0.47-9.25,3.4-9.24,8.41c0.1,34.17,5.46,153.91,73.95,201.07 C334.22,1814.19,337.24,1811.32,335.74,1808.78z" fill="#333"/></g><g id="change5_1"><path d="M299.83,1301.71l0-17.68c0-25.04,3.66-49.95,10.85-73.93l0.29-0.97c6.43-21.44,18.08-40.94,33.91-56.77 l1.78-1.78c9.92-9.92,24.32-13.91,37.93-10.51l13.3,3.33c13.54,3.38,26.07,9.94,36.57,19.13l82.87,72.52 c8.5,7.44,18.05,13.59,28.33,18.27l31.38,14.26c19.76,8.98,37.75,21.45,53.1,36.8l58.05,58.05c4.99,4.99,3.85,13.36-2.33,16.77 c-21.2,11.66-70.27,32.7-141.75,27.6c-76.44-5.46-161.43-10.92-211.51-43.11C311.74,1350.27,299.83,1326.51,299.83,1301.71z" fill="#cbcbcb" stroke="#000" stroke-miterlimit="10" stroke-width="13.391"/></g><g id="change1_11"><path d="M205.03,1362.98c4.59,6.76,9.61,13.44,14.84,19.79c5.26,6.35,10.81,12.46,16.85,17.86c3.03,2.68,6.2,5.16,9.52,7.18 c1.66,0.98,3.35,1.9,5.06,2.52c0.79,0.35,1.88,0.61,2.83,0.92l2.94,0.89c7.95,2.31,16.04,4.54,24.1,6.73l48.47,13.06l48.5,13 l97.03,25.94c32.34,8.67,64.63,17.51,96.9,26.45l-0.11,0.42c-32.6-7.66-65.16-15.48-97.66-23.5l-48.75-12.06l-48.71-12.25 l-48.69-12.32c-16.22-4.15-32.43-8.33-48.64-12.59c-8.11-2.13-16.18-4.26-24.33-6.55l-3.08-0.9c-1.04-0.33-2-0.53-3.14-0.99 c-2.24-0.8-4.25-1.87-6.19-3.01c-3.84-2.32-7.29-5.02-10.54-7.87c-6.47-5.73-12.22-12.04-17.66-18.55 c-5.43-6.55-10.52-13.24-15.36-20.31L205.03,1362.98z"/></g><path d="M209.1,986.93l222.38,16.36c0,0,14.92,25.52-13,32.49" fill="none" stroke="#000" stroke-miterlimit="10" stroke-width="8.747"/><g id="change6_1"><path d="M1769.53,630.7c60.48,10.47,112.8,48.03,142.33,101.84c55.82,101.74,123.78,258.62,136.74,287.43 c0.88,1.96-0.56,4.18-2.71,4.18l-1557.3-1.22c-0.18,0-0.35-0.1-0.44-0.26c-1.83-3.17-2.05-7.01-0.59-10.36 c13.45-30.76,75.64-178.96,128.3-277.7c29.3-54.94,82.16-93.46,143.51-104.07c140.07-24.21,305.21-42.38,490.42-43.27 C1447.28,586.32,1622.53,605.24,1769.53,630.7z" fill="#b2b2b2" stroke="#000" stroke-miterlimit="10" stroke-width="3.826"/></g><g id="change7_1"><path d="M1772.47,663.46c15.26,2.73,28.78,10.65,37.96,22.16c51.32,64.35,144.11,261.2,158.79,291.14 c0.8,1.63-0.5,3.46-2.45,3.46c-32.07-68.23-94.41-173.25-210.26-244.95c-39.36-24.36-118.75-65.84-492.59-67.68 c-398.06-1.97-479.42,44.2-519.4,71.59C639.48,811.14,586.65,913.41,560.27,979.2c-0.1-0.04-0.3-0.05-0.4-0.21 c-1.65-2.63-1.85-5.81-0.53-8.59c15.42-32.36,101.78-221.58,151.41-284.67c9.1-11.57,22.63-19.53,37.89-22.26 c137.7-24.63,306.37-44.5,499.12-45.34C1451.61,617.23,1629.21,637.83,1772.47,663.46z" fill="#fff"/></g><path d="M488.28,1043.86c0,0,125.63,139.59,209.38,230.32c83.75,90.73,181.47,83.75,181.47,83.75H1263h1.94h383.87 c0,0,97.71,6.98,181.47-83.75c83.75-90.73,209.38-230.32,209.38-230.32" fill="none" stroke="#000" stroke-linecap="round" stroke-linejoin="round" stroke-miterlimit="10" stroke-width="10.933"/><path d="M687.8,1520.33c27.02-29.27,55.49-48.37,81.66-60.82c54.96-26.14,99.8-22.94,99.8-22.94h383.87h1.94h383.87 c0,0,47.24-3.37,104.17,25.07c24.95,12.46,51.77,31.04,77.29,58.69" fill="none" opacity=".04" stroke="#000" stroke-linecap="round" stroke-linejoin="round" stroke-miterlimit="10" stroke-width="10.933"/><g id="change1_13"><path d="M208.49,1360.67c1.06,1.57,2.26,3.29,3.43,4.93c1.19,1.65,2.39,3.29,3.62,4.92c2.46,3.25,4.94,6.48,7.52,9.6 c5.14,6.25,10.56,12.26,16.35,17.47c2.89,2.58,5.89,4.93,8.89,6.78c1.49,0.89,3,1.71,4.39,2.22l0.52,0.21 c0.18,0.07,0.46,0.15,0.69,0.22l1.43,0.44l2.86,0.88c1.87,0.6,3.93,1.16,5.91,1.73l6,1.72l12.06,3.39l96.77,26.75l48.42,13.33 l24.19,6.74c8.07,2.24,16.12,4.51,24.17,6.81c32.22,9.12,64.38,18.47,96.44,28.25l-0.24,0.92c-32.81-6.83-65.51-14.12-98.13-21.7 c-8.16-1.88-16.31-3.79-24.46-5.72l-24.44-5.81l-48.82-11.84l-48.8-11.92c-16.26-4.03-32.49-8.14-48.73-12.31l-12.19-3.15 l-6.1-1.61c-2.05-0.55-4.03-1.04-6.17-1.67l-3.16-0.9l-1.58-0.45c-0.27-0.08-0.5-0.13-0.81-0.24l-0.94-0.34 c-2.55-0.9-4.76-2.07-6.87-3.3c-4.16-2.5-7.77-5.32-11.17-8.27c-6.73-5.93-12.6-12.34-18.17-18.94c-2.78-3.31-5.46-6.67-8.04-10.1 c-1.29-1.72-2.57-3.44-3.83-5.19c-1.27-1.76-2.48-3.47-3.76-5.36L208.49,1360.67z"/></g><path d="M2222.8,1339.04c0,0,48.86-34.9,69.79-27.92c20.94,6.98,34.9-6.98,34.9-6.98" fill="none" stroke="#000" stroke-miterlimit="10" stroke-width="10.933"/><g id="change1_5"><path d="M1838.16,1863.08c-30.65,1.99-61.56,3.84-92.72,5.53c-50.25,2.77-101.16,5.15-152.73,7.14 c-120.9,4.67-238.47,6.85-352.46,6.98c-113.99-0.13-231.54-2.31-352.48-6.98c-56.81-2.18-112.84-4.86-168.03-7.98 c-26-1.45-51.78-3.02-77.42-4.69c-8-0.52-11.92-9.99-6.66-16.05c22.78-26.3,44.04-52.38,70.64-55.05c69.8-6.96,537.42,0,537.42,0 h6.98c0,0,453.67-6.96,523.46,0c26.61,2.68,47.86,28.75,70.66,55.05C1850.08,1853.1,1846.16,1862.57,1838.16,1863.08z"/></g><g id="change4_2"><path d="M2197.24,1808.78c14.23-24.14,49.07-88.09,50.37-137.71c0.19-7.24-5.22-12.26-12.39-11.16 c-39.77,6.12-167.03,24.96-190.52,19.08c-22.67-5.67-54.54-11.33-69.46-24.48c-4.43-3.9-2.3-11.2,3.53-12.1 c43.88-6.77,209.68-32.02,287.14-39.38c4.99-0.47,9.25,3.4,9.24,8.41c-0.1,34.17-5.46,153.91-73.95,201.07 C2198.76,1814.19,2195.75,1811.32,2197.24,1808.78z" fill="#333"/></g><g id="change8_1"><path d="M2233.15,1284.04v17.68c0,24.81-11.9,48.55-32.77,61.96c-50.08,32.19-135.07,37.67-211.51,43.12 c-71.49,5.11-120.55-15.93-141.75-27.58c-2.22-1.22-3.79-3.1-4.67-5.22c-1.55-3.77-0.86-8.36,2.33-11.55l10.96-10.96l47.1-47.1 c15.34-15.34,33.34-27.81,53.1-36.79l31.37-14.27c10.29-4.67,19.84-10.83,28.33-18.27l82.87-72.52 c10.5-9.18,23.05-15.74,36.58-19.13l13.29-3.31c13.62-3.4,28.02,0.57,37.93,10.5l1.78,1.78c15.82,15.82,27.49,35.33,33.92,56.76 l0.29,0.98c0.17,0.59,0.36,1.2,0.52,1.8c0.5,1.65,0.94,3.27,1.38,4.92C2230.14,1238.72,2233.15,1261.33,2233.15,1284.04z" fill="#fff599" stroke="#000" stroke-miterlimit="10" stroke-width="13.391"/></g><g id="change1_14"><path d="M2341.05,1371.82c-1.28,1.9-2.49,3.6-3.76,5.36c-1.26,1.74-2.54,3.47-3.83,5.19c-2.59,3.43-5.27,6.79-8.04,10.1 c-5.56,6.6-11.44,13.02-18.17,18.94c-3.39,2.95-7.01,5.77-11.17,8.27c-2.11,1.23-4.31,2.4-6.87,3.3l-0.94,0.34 c-0.31,0.11-0.54,0.16-0.81,0.24l-1.58,0.45l-3.16,0.9c-2.14,0.63-4.12,1.12-6.17,1.67l-6.1,1.61l-12.19,3.15 c-16.25,4.17-32.48,8.28-48.73,12.31l-48.8,11.92l-48.82,11.84l-24.44,5.81c-8.15,1.94-16.3,3.85-24.46,5.72 c-32.62,7.57-65.32,14.87-98.13,21.7l-0.24-0.92c32.06-9.78,64.22-19.14,96.44-28.25c8.05-2.3,16.11-4.57,24.17-6.81l24.19-6.74 l48.42-13.33l96.77-26.75l12.06-3.39l6-1.72c1.99-0.58,4.05-1.14,5.91-1.73l2.86-0.88l1.43-0.44c0.23-0.07,0.5-0.15,0.69-0.22 l0.52-0.21c1.39-0.51,2.89-1.34,4.39-2.22c3-1.85,6-4.2,8.89-6.78c5.79-5.2,11.21-11.21,16.35-17.47c2.58-3.13,5.06-6.36,7.52-9.6 c1.22-1.63,2.43-3.27,3.62-4.92c1.17-1.64,2.38-3.35,3.43-4.93L2341.05,1371.82z"/></g><g id="change1_15"><path d="M2205.23,1699.93c-1.8,1.19-3.8,2.03-5.81,2.81c-2.02,0.75-4.06,1.44-6.13,2.06c-4.12,1.26-8.3,2.33-12.48,3.35 c-8.38,2.01-16.81,3.76-25.27,5.42c-16.91,3.29-33.9,6.1-50.91,8.81c-34.01,5.4-68.14,10-102.3,14.35l-12.83,1.59l-12.9,1.38 c-8.59,0.84-17.18,1.62-25.77,2.29c-17.18,1.41-34.37,2.56-51.56,3.68c-17.19,1.07-34.38,2.12-51.57,3 c-17.19,0.88-34.39,1.7-51.59,2.47c-68.78,3.13-137.58,5.53-206.39,7.44c-68.81,1.95-137.62,3.45-206.45,4.61l-12.93,0.21 l-12.94,0.02l-25.81-0.01l-51.63-0.03c-34.42-0.04-68.82,0.02-103.27-0.15c-68.85-0.33-137.68-1.13-206.51-2.45 c-68.83-1.3-137.66-3.26-206.47-6.08c-34.41-1.39-68.81-3.21-103.19-5.52c-17.19-1.16-34.38-2.51-51.56-4.14 c-17.18-1.69-34.35-3.56-51.5-6.87l0.26,0.04c-18.2-2.22-36.35-4.57-54.51-7.03c-18.15-2.44-36.28-5.07-54.38-7.87 c-18.1-2.82-36.18-5.74-54.19-9.16c-9-1.72-17.98-3.54-26.9-5.64c-4.46-1.06-8.91-2.17-13.3-3.47c-2.19-0.67-4.38-1.35-6.53-2.16 c-2.14-0.82-4.28-1.68-6.2-2.95c1.96,1.18,4.13,1.96,6.29,2.68c2.17,0.72,4.38,1.3,6.59,1.88c4.43,1.12,8.9,2.08,13.38,2.97 c8.97,1.77,17.99,3.26,27.03,4.65c18.08,2.77,36.21,5.19,54.36,7.42c18.15,2.23,36.33,4.27,54.51,6.29 c18.18,1.99,36.38,3.88,54.57,5.62l0.08,0.01l0.19,0.03c16.72,2.8,33.86,4.19,50.93,5.57c17.1,1.28,34.24,2.27,51.4,3.09 c34.31,1.65,68.68,2.65,103.04,3.63c68.74,1.84,137.52,2.66,206.3,3.38c68.78,0.66,137.58,1.01,206.36,1.08l103.18-0.08l51.59-0.03 l25.8-0.01l12.86,0l12.87-0.19c137.57-2.21,275.15-4.67,412.67-8.24c17.19-0.47,34.37-0.99,51.56-1.58 c17.18-0.55,34.36-1.12,51.54-1.8c17.17-0.7,34.34-1.44,51.48-2.43c8.58-0.45,17.13-1.07,25.69-1.62l12.8-0.98l12.82-1.24 c34.22-3.4,68.4-7.19,102.53-11.39c17.06-2.13,34.1-4.44,51.08-7.08c8.49-1.33,16.97-2.75,25.39-4.44 c4.21-0.85,8.41-1.77,12.56-2.85c2.08-0.53,4.14-1.13,6.18-1.79C2201.36,1701.79,2203.39,1701.05,2205.23,1699.93z"/></g><path d="M2323.88,988.03l-221.83,17.74c0,0-13.95,27.94,13.97,34.92" fill="none" stroke="#000" stroke-miterlimit="10" stroke-width="8.747"/><circle cx="1863.24" cy="1623.16" fill="none" r="34.9" stroke="#000" stroke-miterlimit="10" stroke-width="3.826"/><path d="M691.32,1374.1c0,0-298.42-59.5-384.5-142.62" fill="none" stroke="#000" stroke-miterlimit="10" stroke-width="11.478"/><g id="change8_2"><path d="M2170.47 1140.88L1967.93 1407.57" fill="#fff599" stroke="#000" stroke-miterlimit="10" stroke-width="15.303"/></g><g id="change8_3"><path d="M2226.17 1337L1901.25 1306.19" fill="#fff599" stroke="#000" stroke-miterlimit="10" stroke-width="15.303"/></g><g id="change7_2"><circle cx="409.16" cy="1275.58" fill="#fff" r="82.26" stroke="#000" stroke-miterlimit="10" stroke-width="13.391"/></g><g id="change9_1"><circle cx="560.28" cy="1336.79" fill="#ff4a5c" r="55.48" stroke="#000" stroke-miterlimit="10" stroke-width="13.391"/></g><g id="change10_1"><path d="M530.12 1290.25L591.85 1382.4" fill="#f1f1f1" stroke="#000" stroke-miterlimit="10" stroke-width="15.303"/></g><g id="change10_2"><path d="M606.09 1305.94L514.47 1368.06" fill="#f1f1f1" stroke="#000" stroke-miterlimit="10" stroke-width="15.303"/></g><g id="change7_3"><path d="M1042.2,988.03c23.44,1,519.67-124.04,402.45-197.12s136.75-95.81,273.51,19.49s-7.81,155.9-123.08,155.9 S1042.2,988.03,1042.2,988.03z" fill="#fff"/></g><g id="change7_4"><path d="M1793.06,1865.9c-50.25,5.42-129.51,5.2-181.08,9.09c-120.9,9.12-257.73,7.48-371.72,7.75 c-113.99-0.26-246.44,1.56-367.38-7.57c-56.81-4.26-152.55-4.53-207.74-10.63c120.21-23.55,378.53-32.58,588.98-28.73 C1440.79,1839.25,1681.97,1845.56,1793.06,1865.9z" fill="#fff" opacity=".1"/></g><g id="change1_6"><path d="M1254.69,1340.21l11.22-34.13c1.61-4.91,6.77-7.71,11.77-6.39l11.3,2.98c7.12,1.88,14.7,0.57,20.78-3.58l0,0 c1.89-1.29,1.15-4.24-1.12-4.49c-15.66-0.94-31.32-1.87-46.98-2.81c0.6,5.58-3.89,10.07-8.43,9.89c-4.49-0.17-8.6-4.89-7.68-10.36 c-15.32,1.08-30.64,2.15-45.96,3.23c-2.28,0.26-2.99,3.23-1.08,4.5l2.28,1.52c5.58,3.72,12.41,5.08,18.99,3.78l8.66-1.72 c4.49-0.89,9,1.46,10.84,5.66l14.03,31.99C1253.57,1340.9,1254.47,1340.86,1254.69,1340.21z" stroke="#000" stroke-miterlimit="10" stroke-width="4.428"/></g><g id="change7_5"><path d="M306.81,1287.16c0-25.04-0.03-44.88,7.17-68.87l0.98-3.91c6.43-21.44,14.46-36.92,30.28-52.75l5.37-5.86 c9.92-9.92,16.34-13.01,29.96-9.61l14.33,3.58c13.54,3.38,24.99,9.7,35.49,18.89l84.08,73.26c8.5,7.44,16.34,11.77,26.62,16.44 l32.24,14.89c19.76,8.98,37.15,21.29,52.5,36.64l55.43,55.43c4.99,4.99-2.87,11.35-9.06,14.76c-6.38-1.88-15.99-4.78-27.57-8.57 c-85.73-28.1-128.33-55.75-166.71-70.98C441.71,1286.14,386.55,1273.8,306.81,1287.16z" fill="#fff" opacity=".29"/></g><g id="change7_6"><path d="M2217.32,1216.59c-44.09,39.18-136.93,80.92-177.67,105c-37.8,22.36-133.68,43.89-187.51,53.32 c-3.1-3.46-6.11-3.97-1.95-7.34l12.23-12.74l44.26-44.47c15.34-15.34,27.13-25.46,46.89-34.43l32.48-14.9 c10.29-4.67,22.52-10.63,31.01-18.07l77.41-67.89c10.5-9.18,25.3-21.28,38.83-24.66l13.43-3.17c13.62-3.4,23.06-3.82,32.97,6.11 l3.91,4.64c15.82,15.82,24.34,28.88,30.77,50.31l0.65,2.36C2215.21,1211.24,2217.17,1215.99,2217.32,1216.59z" fill="#fff" opacity=".29"/></g><g id="change1_7"><path d="M2341.71,1647.23c-4.94,36.62-9.88,157.44-29.36,242.03c-17.4,35.19-126.87,60.43-163.61,61.18 c-6.54,0.59-15.27,1.16-18.44,1.69c-0.02,0-0.02,0-0.02,0l-131.73,6.55c-2.23-0.59-12.92,0.57-25.11-5.18 c-0.8-0.38-1.63-0.81-2.45-1.25c-9.98-5.43-27.69-11.58-53.31-7.33c-41.9,6.98-640.72,13.96-640.72,13.96h-6.99 c0,0-607.21-6.99-649.09-13.96c-25.62-4.25-43.33,1.89-53.31,7.33c-8.39,4.61-17.95,6.64-27.57,6.43c-1.77-0.02-3.68-0.05-5.75-0.1 c-30.79-0.48-91.45-1.55-144.56-6.76l-7.81-1.4c-0.43-0.55-0.86-1.09-1.29-1.65c-1.36,2.09-3.72,3.44-6.53,2.97 c-48.62-8.05-166.79-31.88-149.89-58.1c-19.26-85.11-24.15-206.68-29.04-243.52c-6.98-52.63,13.96-428.56,27.92-443.6 c3.49-3.75,14.24-14.43,28.55-28.49l6.35-1.57c0,0-76.77,436.07,0,578.92c21.63,40.26,41.88,73.65,59.81,100.85 c12.6,19.12,33.29,31.36,56.12,33.18c64.82,5.17,152.36,13.04,249.37,17.26c101.89,4.43,231.86,8.72,601.61,11 c436.67,2.69,529.83-1.62,599.27-5.86c141.97-8.68,266.76-24.25,352.85-35.72c17.96-2.39,33.99-12.49,43.86-27.69 c17.31-26.67,36.68-58.77,57.35-96.57c77.64-141.97,0-575.37,0-575.37l6.43,1.56c14.46,13.97,25.33,24.59,28.86,28.32 C2327.6,1221.3,2348.77,1594.93,2341.71,1647.23z" opacity=".12"/></g><g id="change1_8"><path d="M620.53,1023.71H1995.5c23.06,0,35.07,8.57,19.41,13.86l0,0c-123.99,41.85-298.31,65.64-480.92,65.64h-511.44 c-183.7,0-359.97-22.65-490.45-63.02l-7.66-2.37c-16.77-5.19-5-14.12,18.61-14.12H620.53z" opacity=".04"/></g><g id="change7_7"><path d="M1911.7,653.93c-49.05-17.6-121.56-40.91-211.34-59.71c-154.85-32.43-272.93-32.99-434.47-32.84 c-140.09,0.13-251.9,0.77-400.5,27.35c-103.88,18.58-189.14,43.3-249.98,63.5c3.39-4.37,9.95-12.97,19.45-22.48 C718.63,546,1263,542.06,1263,542.06s542.34,1.99,626.11,85.74C1896.37,635.07,1903.93,643.87,1911.7,653.93z" fill="#fff" opacity=".19"/></g><g id="change7_8"><path d="M380.65,952.2c-29.48,4.13-63.39,6.72-100.86,5.78c-18.44-0.47-35.85-1.74-52.11-3.54 c1.96-4.59,5.23-11.1,10.61-17.87c11.02-13.88,26.35-20.19,56.39-32.38c3.55-1.44,18.12-7.26,37.77-10.69 c11.13-1.94,15.02-1.57,18.62-0.19c9.68,3.7,14.1,13.41,20.1,27.08C374.37,927.7,378.3,938.44,380.65,952.2z" fill="#fff" opacity=".18"/></g><g id="change7_9"><path d="M2310.97,953.87c-25.27,4.74-59.05,8.19-98.31,4.1c-21.39-2.23-40.36-6.27-56.52-10.8 c2.68-8.07,6.68-18.63,12.65-30.52c6.51-12.96,10.13-19.38,16.38-22.7c7.94-4.23,18.18-1.51,38.34,4.09 c11.6,3.23,25.2,7.09,42.43,15.63c14.92,7.4,24.86,12.46,34.24,23.45C2305.6,943.47,2308.96,949.61,2310.97,953.87z" fill="#fff" opacity=".18"/></g><g id="change7_10"><path d="M544.27,873.49c1.85-1.6-90.17,150.74-75.65,165.82c10.57,10.97,67.48,74.12,91.85,101.89 c3.58,4.08-21.52-5.03-26.49-7.23l-83.52-49.31c-27.91-8.52-5.22-60.29,11.37-84.29C491.31,957.74,532.06,884.06,544.27,873.49z" fill="#fff" opacity=".11"/></g><g id="change7_11"><path d="M1988.81,865.67c-1.85-1.6,90.17,150.74,75.65,165.82c-10.57,10.97-67.48,74.12-91.85,101.89 c-3.58,4.08,21.52-5.03,26.49-7.23l83.52-49.31c27.91-8.52,5.22-60.29-11.37-84.29C2041.78,949.92,2001.02,876.24,1988.81,865.67z" fill="#fff" opacity=".11"/></g><g id="change1_9"><path d="M2104.34,1005.59c0,0-19.05,33.76,21.49,43.5c40.54,9.74-46.49-10.43,52.3-20.16 c98.79-9.73,149.76-20.61,149.02-37.65C2327.15,991.28,2162.51,996.62,2104.34,1005.59z" opacity=".26"/></g><g id="change1_10"><path d="M429.22,1002.94c0,0,17.29,28.19-21.49,43.5c-35.09,13.86,48.01-9.28-52.3-20.16 c-98.69-10.71-149.76-20.61-149.02-37.65C206.41,988.63,371.06,993.97,429.22,1002.94z" opacity=".26"/></g></svg>