<?xml version="1.0" encoding="UTF-8"?><svg xmlns="http://www.w3.org/2000/svg" xmlns:xlink="http://www.w3.org/1999/xlink" height="784.0" preserveAspectRatio="xMidYMid meet" version="1.0" viewBox="-8.4 -23.9 603.9 784.0" width="603.9" zoomAndPan="magnify"><defs><clipPath id="a"><path d="M 385 575 L 595.550781 575 L 595.550781 733 L 385 733 Z M 385 575"/></clipPath><clipPath id="b"><path d="M 171 617 L 314 617 L 314 760.171875 L 171 760.171875 Z M 171 617"/></clipPath><clipPath id="c"><path d="M 315 617 L 459 617 L 459 760.171875 L 315 760.171875 Z M 315 617"/></clipPath><clipPath id="d"><path d="M 350 285 L 472 285 L 472 407 L 350 407 Z M 350 285"/></clipPath><clipPath id="e"><path d="M 411.234375 406.632812 C 379.472656 406.632812 352.8125 381.890625 350.855469 349.765625 C 348.820312 316.382812 374.230469 287.679688 407.609375 285.648438 C 408.863281 285.570312 410.113281 285.535156 411.351562 285.535156 C 443.113281 285.535156 469.773438 310.273438 471.726562 342.402344 C 473.761719 375.78125 448.355469 404.488281 414.976562 406.519531 C 413.722656 406.59375 412.472656 406.632812 411.234375 406.632812"/></clipPath><clipPath id="f"><path d="M 411.234375 406.632812 C 379.472656 406.632812 352.8125 381.890625 350.855469 349.765625 C 348.820312 316.382812 374.230469 287.679688 407.609375 285.648438 C 408.863281 285.570312 410.113281 285.535156 411.351562 285.535156 C 443.113281 285.535156 469.773438 310.273438 471.726562 342.402344 C 473.761719 375.78125 448.355469 404.488281 414.976562 406.519531 C 413.722656 406.59375 412.472656 406.632812 411.234375 406.632812"/></clipPath><clipPath id="h"><path d="M 103 245 L 225 245 L 225 367 L 103 367 Z M 103 245"/></clipPath><clipPath id="i"><path d="M 163.578125 366.328125 C 131.816406 366.328125 105.152344 341.585938 103.1875 309.460938 C 101.15625 276.082031 126.570312 247.371094 159.945312 245.339844 C 161.199219 245.261719 162.449219 245.226562 163.6875 245.226562 C 195.449219 245.226562 222.117188 269.972656 224.074219 302.09375 C 226.101562 335.472656 200.695312 364.179688 167.3125 366.214844 C 166.0625 366.292969 164.816406 366.328125 163.578125 366.328125"/></clipPath><clipPath id="j"><path d="M 163.578125 366.328125 C 131.816406 366.328125 105.152344 341.585938 103.1875 309.460938 C 101.15625 276.082031 126.570312 247.371094 159.945312 245.339844 C 161.199219 245.261719 162.449219 245.226562 163.6875 245.226562 C 195.449219 245.226562 222.117188 269.972656 224.074219 302.09375 C 226.101562 335.472656 200.695312 364.179688 167.3125 366.214844 C 166.0625 366.292969 164.816406 366.328125 163.578125 366.328125"/></clipPath><radialGradient cx="0" cy="0" fx="0" fy="0" gradientTransform="rotate(-3.491 5882.913 -6573.967)" gradientUnits="userSpaceOnUse" id="g" r="60.548" xlink:actuate="onLoad" xlink:show="other" xlink:type="simple" xmlns:xlink="http://www.w3.org/1999/xlink"><stop offset="0" stop-color="#f5ad8e"/><stop offset=".031" stop-color="#f5ae8f"/><stop offset=".059" stop-color="#f6af8f"/><stop offset=".086" stop-color="#f6af90"/><stop offset=".113" stop-color="#f6b091"/><stop offset=".141" stop-color="#f7b091"/><stop offset=".164" stop-color="#f7b192"/><stop offset=".188" stop-color="#f7b292"/><stop offset=".211" stop-color="#f7b292"/><stop offset=".234" stop-color="#f7b393"/><stop offset=".258" stop-color="#f8b394"/><stop offset=".301" stop-color="#f8b494"/><stop offset=".344" stop-color="#f9b595"/><stop offset=".383" stop-color="#f9b696"/><stop offset=".418" stop-color="#f9b797"/><stop offset=".453" stop-color="#fab897"/><stop offset=".484" stop-color="#fab898"/><stop offset=".516" stop-color="#fab999"/><stop offset=".543" stop-color="#fbba99"/><stop offset=".57" stop-color="#fbba9a"/><stop offset=".594" stop-color="#fbbb9a"/><stop offset=".617" stop-color="#fbbb9b"/><stop offset=".641" stop-color="#fcbc9b"/><stop offset=".684" stop-color="#fcbd9c"/><stop offset=".723" stop-color="#fcbe9d"/><stop offset=".754" stop-color="#fdbf9d"/><stop offset=".781" stop-color="#fdbf9e"/><stop offset=".809" stop-color="#fdc09e"/><stop offset=".832" stop-color="#fec19f"/><stop offset=".871" stop-color="#fec1a0"/><stop offset=".902" stop-color="#fec2a0"/><stop offset=".926" stop-color="#fec3a1"/><stop offset=".961" stop-color="#ffc4a2"/><stop offset="1" stop-color="#ffc4a2"/></radialGradient><radialGradient cx="0" cy="0" fx="0" fy="0" gradientTransform="rotate(-3.491 5097.906 -2531.387)" gradientUnits="userSpaceOnUse" id="k" r="60.553" xlink:actuate="onLoad" xlink:show="other" xlink:type="simple" xmlns:xlink="http://www.w3.org/1999/xlink"><stop offset="0" stop-color="#f5ad8e"/><stop offset=".031" stop-color="#f5ae8f"/><stop offset=".059" stop-color="#f6af8f"/><stop offset=".086" stop-color="#f6af90"/><stop offset=".113" stop-color="#f6b091"/><stop offset=".141" stop-color="#f7b091"/><stop offset=".164" stop-color="#f7b192"/><stop offset=".188" stop-color="#f7b292"/><stop offset=".211" stop-color="#f7b292"/><stop offset=".234" stop-color="#f7b393"/><stop offset=".258" stop-color="#f8b394"/><stop offset=".301" stop-color="#f8b494"/><stop offset=".344" stop-color="#f9b595"/><stop offset=".383" stop-color="#f9b696"/><stop offset=".418" stop-color="#f9b797"/><stop offset=".453" stop-color="#fab897"/><stop offset=".484" stop-color="#fab898"/><stop offset=".516" stop-color="#fab999"/><stop offset=".543" stop-color="#fbba99"/><stop offset=".57" stop-color="#fbba9a"/><stop offset=".594" stop-color="#fbbb9a"/><stop offset=".617" stop-color="#fbbb9b"/><stop offset=".641" stop-color="#fcbc9b"/><stop offset=".684" stop-color="#fcbd9c"/><stop offset=".723" stop-color="#fcbe9d"/><stop offset=".754" stop-color="#fdbf9d"/><stop offset=".781" stop-color="#fdbf9e"/><stop offset=".809" stop-color="#fdc09e"/><stop offset=".832" stop-color="#fec19f"/><stop offset=".871" stop-color="#fec1a0"/><stop offset=".902" stop-color="#fec2a0"/><stop offset=".926" stop-color="#fec3a1"/><stop offset=".961" stop-color="#ffc4a2"/><stop offset="1" stop-color="#ffc4a2"/></radialGradient></defs><g><g><path d="M 423.90625 408.871094 L 160.65625 408.871094 C 160.65625 408.871094 118.253906 494.289062 135.234375 599.074219 C 135.234375 599.074219 156.136719 714.320312 292.28125 711.996094 C 428.425781 714.320312 449.328125 599.074219 449.328125 599.074219 C 466.308594 494.289062 423.90625 408.871094 423.90625 408.871094" fill="#73bfc9"/></g><g><path d="M 150.195312 586.546875 C 150.195312 586.546875 131.890625 595.089844 114.808594 593.949219 C 97.722656 592.8125 67.890625 552.949219 16.214844 593.378906 C 16.214844 593.378906 -8.378906 608.1875 3.011719 634.382812 C 14.402344 660.578125 54.265625 692.46875 59.960938 706.136719 C 65.652344 719.804688 106.386719 754.128906 140.546875 712.03125 L 210.300781 684.496094 C 210.300781 684.496094 189.179688 601.351562 150.195312 586.546875" fill="#73bfc9"/></g><g><path d="M 152.902344 665.800781 C 151.699219 665.800781 150.609375 664.976562 150.320312 663.753906 C 144.3125 638.445312 133.914062 622.855469 126.246094 614.234375 C 117.957031 604.914062 110.992188 601.507812 110.921875 601.472656 C 109.601562 600.839844 109.039062 599.253906 109.671875 597.933594 C 110.300781 596.609375 111.878906 596.046875 113.203125 596.671875 C 113.515625 596.820312 121.011719 600.433594 129.980469 610.433594 C 138.136719 619.527344 149.183594 635.949219 155.488281 662.527344 C 155.828125 663.957031 154.945312 665.386719 153.519531 665.726562 C 153.3125 665.777344 153.105469 665.800781 152.902344 665.800781" fill="#54abb2"/></g><g><path d="M 165.914062 615.609375 C 165.179688 615.609375 164.449219 615.308594 163.925781 614.714844 C 149.726562 598.679688 139.960938 598.234375 139.863281 598.234375 L 139.855469 598.234375 C 138.390625 598.234375 137.222656 597.046875 137.21875 595.582031 C 137.214844 594.113281 138.421875 592.921875 139.886719 592.917969 L 139.890625 592.917969 C 140.429688 592.917969 151.925781 593.148438 167.902344 611.191406 C 168.878906 612.289062 168.773438 613.96875 167.675781 614.941406 C 167.171875 615.390625 166.542969 615.609375 165.914062 615.609375" fill="#54abb2"/></g><g clip-path="url(#a)"><path d="M 445.355469 586.546875 C 445.355469 586.546875 463.65625 595.089844 480.742188 593.949219 C 497.828125 592.8125 527.660156 552.949219 579.339844 593.378906 C 579.339844 593.378906 603.929688 608.1875 592.539062 634.382812 C 581.148438 660.578125 541.285156 692.46875 535.59375 706.136719 C 529.898438 719.804688 489.164062 754.128906 455.003906 712.03125 L 385.25 684.496094 C 385.25 684.496094 406.371094 601.351562 445.355469 586.546875" fill="#73bfc9"/></g><g><path d="M 442.648438 665.800781 C 442.445312 665.800781 442.238281 665.777344 442.03125 665.726562 C 440.605469 665.386719 439.722656 663.957031 440.058594 662.527344 C 446.367188 635.949219 457.414062 619.527344 465.570312 610.433594 C 474.539062 600.433594 482.03125 596.820312 482.347656 596.671875 C 483.675781 596.042969 485.257812 596.609375 485.886719 597.9375 C 486.511719 599.261719 485.949219 600.84375 484.628906 601.472656 C 484.558594 601.507812 477.59375 604.914062 469.304688 614.234375 C 461.636719 622.855469 451.238281 638.445312 445.230469 663.753906 C 444.941406 664.976562 443.851562 665.800781 442.648438 665.800781" fill="#54abb2"/></g><g><path d="M 429.636719 615.609375 C 429.007812 615.609375 428.378906 615.390625 427.875 614.941406 C 426.773438 613.96875 426.675781 612.289062 427.644531 611.191406 C 443.625 593.148438 455.117188 592.917969 455.65625 592.917969 L 455.660156 592.917969 C 457.128906 592.921875 458.316406 594.113281 458.3125 595.582031 C 458.308594 597.039062 457.136719 598.21875 455.683594 598.234375 C 455.445312 598.242188 445.71875 598.796875 431.625 614.714844 C 431.101562 615.308594 430.367188 615.609375 429.636719 615.609375" fill="#54abb2"/></g><g><path d="M 214.878906 428.714844 C 215.214844 435.296875 224.445312 486.308594 248.503906 480.464844 C 272.558594 474.621094 295.753906 450.101562 295.753906 450.101562 L 214.878906 428.714844" fill="#f5f9fc"/></g><g><path d="M 375.195312 431.945312 C 374.621094 438.511719 363.519531 489.148438 339.691406 482.421875 C 315.867188 475.695312 293.589844 450.339844 293.589844 450.339844 L 375.195312 431.945312" fill="#f5f9fc"/></g><g clip-path="url(#b)"><path d="M 286.078125 760.171875 L 199.121094 760.171875 C 183.789062 760.171875 171.363281 747.742188 171.363281 732.410156 L 171.363281 645.453125 C 171.363281 630.121094 183.789062 617.695312 199.121094 617.695312 L 286.078125 617.695312 C 301.410156 617.695312 313.835938 630.121094 313.835938 645.453125 L 313.835938 732.410156 C 313.835938 747.742188 301.410156 760.171875 286.078125 760.171875" fill="#f2db7c"/></g><g><path d="M 195.539062 631.457031 C 189.796875 631.457031 185.121094 636.128906 185.121094 641.871094 L 185.121094 735.992188 C 185.121094 741.734375 189.796875 746.410156 195.539062 746.410156 L 289.660156 746.410156 C 295.402344 746.410156 300.074219 741.734375 300.074219 735.992188 L 300.074219 641.871094 C 300.074219 636.128906 295.402344 631.457031 289.660156 631.457031 Z M 289.660156 750.984375 L 195.539062 750.984375 C 187.273438 750.984375 180.546875 744.261719 180.546875 735.992188 L 180.546875 641.871094 C 180.546875 633.605469 187.273438 626.878906 195.539062 626.878906 L 289.660156 626.878906 C 297.925781 626.878906 304.652344 633.605469 304.652344 641.871094 L 304.652344 735.992188 C 304.652344 744.261719 297.925781 750.984375 289.660156 750.984375" fill="#fff"/></g><g><path d="M 244.441406 701.476562 C 244.441406 700.25 244.007812 699.382812 243.140625 698.878906 C 242.273438 698.375 241.300781 698.121094 240.214844 698.121094 C 239.203125 698.121094 238.140625 698.355469 237.019531 698.824219 C 235.898438 699.292969 234.980469 699.851562 234.257812 700.503906 C 234.039062 700.648438 233.878906 701.007812 233.769531 701.585938 C 233.660156 702.167969 233.589844 702.796875 233.554688 703.480469 C 233.515625 704.167969 233.480469 704.820312 233.445312 705.433594 C 233.40625 706.046875 233.390625 706.460938 233.390625 706.679688 C 233.390625 706.824219 233.390625 707.113281 233.390625 707.542969 C 233.390625 707.976562 233.40625 708.429688 233.445312 708.898438 C 233.480469 709.367188 233.554688 709.800781 233.660156 710.199219 C 233.769531 710.597656 233.894531 710.792969 234.039062 710.792969 C 235.050781 710.792969 236.171875 710.507812 237.398438 709.925781 C 238.628906 709.351562 239.765625 708.628906 240.8125 707.761719 C 241.859375 706.894531 242.722656 705.902344 243.410156 704.78125 C 244.097656 703.664062 244.441406 702.5625 244.441406 701.476562 Z M 244.875 670.171875 C 244.875 668.945312 244.496094 668.042969 243.738281 667.460938 C 242.976562 666.886719 241.984375 666.597656 240.757812 666.597656 C 239.746094 666.597656 238.679688 666.8125 237.5625 667.246094 C 236.441406 667.679688 235.484375 668.257812 234.691406 668.980469 C 234.472656 669.195312 234.273438 669.808594 234.09375 670.820312 C 233.914062 671.835938 233.769531 672.96875 233.660156 674.234375 C 233.554688 675.5 233.480469 676.6875 233.445312 677.808594 C 233.40625 678.929688 233.390625 679.667969 233.390625 680.027344 C 233.390625 680.175781 233.390625 680.40625 233.390625 680.734375 C 233.390625 681.058594 233.40625 681.402344 233.445312 681.761719 C 233.480469 682.125 233.535156 682.449219 233.609375 682.738281 C 233.679688 683.027344 233.785156 683.171875 233.933594 683.171875 C 235.160156 683.171875 236.425781 682.71875 237.722656 681.816406 C 239.023438 680.914062 240.195312 679.796875 241.246094 678.457031 C 242.289062 677.125 243.15625 675.695312 243.84375 674.179688 C 244.53125 672.664062 244.875 671.328125 244.875 670.171875 Z M 262.855469 664.429688 C 262.855469 669.414062 261.628906 673.945312 259.175781 678.023438 C 256.71875 682.105469 253.433594 685.519531 249.316406 688.261719 C 251.480469 688.695312 253.359375 689.4375 254.949219 690.484375 C 256.535156 691.53125 257.855469 692.8125 258.902344 694.328125 C 259.949219 695.84375 260.742188 697.5625 261.285156 699.472656 C 261.828125 701.386719 262.097656 703.390625 262.097656 705.488281 C 262.097656 709.601562 261.140625 713.195312 259.226562 716.265625 C 257.3125 719.335938 254.839844 721.863281 251.808594 723.847656 C 248.773438 725.835938 245.398438 727.316406 241.679688 728.289062 C 237.957031 729.265625 234.257812 729.753906 230.574219 729.753906 C 228.550781 729.753906 226.527344 729.605469 224.507812 729.320312 C 222.484375 729.03125 220.570312 728.523438 218.765625 727.800781 C 218.117188 727.585938 217.574219 726.703125 217.140625 725.148438 C 216.710938 723.597656 216.363281 721.699219 216.113281 719.460938 C 215.859375 717.222656 215.660156 714.800781 215.515625 712.203125 C 215.371094 709.601562 215.261719 707.113281 215.191406 704.726562 C 215.117188 702.34375 215.085938 700.25 215.085938 698.445312 C 215.085938 696.640625 215.085938 695.375 215.085938 694.652344 C 215.085938 692.125 215.085938 689.582031 215.085938 687.015625 C 215.085938 684.453125 215.15625 681.90625 215.300781 679.378906 C 215.300781 678.730469 215.316406 677.71875 215.355469 676.34375 C 215.390625 674.972656 215.425781 673.4375 215.464844 671.742188 C 215.496094 670.046875 215.570312 668.257812 215.679688 666.378906 C 215.785156 664.503906 215.929688 662.75 216.113281 661.125 C 216.292969 659.5 216.546875 658.109375 216.871094 656.953125 C 217.195312 655.800781 217.574219 655.078125 218.007812 654.789062 C 219.667969 653.703125 221.511719 652.675781 223.53125 651.699219 C 225.554688 650.726562 227.648438 649.878906 229.816406 649.15625 C 231.984375 648.433594 234.148438 647.855469 236.316406 647.421875 C 238.484375 646.988281 240.539062 646.773438 242.492188 646.773438 C 245.160156 646.773438 247.746094 647.152344 250.234375 647.910156 C 252.726562 648.667969 254.894531 649.804688 256.734375 651.320312 C 258.578125 652.839844 260.058594 654.699219 261.179688 656.902344 C 262.296875 659.105469 262.855469 661.613281 262.855469 664.429688" fill="#fff"/></g><g clip-path="url(#c)"><path d="M 430.667969 760.171875 L 343.710938 760.171875 C 328.382812 760.171875 315.953125 747.742188 315.953125 732.410156 L 315.953125 645.453125 C 315.953125 630.121094 328.382812 617.695312 343.710938 617.695312 L 430.667969 617.695312 C 446 617.695312 458.429688 630.121094 458.429688 645.453125 L 458.429688 732.410156 C 458.429688 747.742188 446 760.171875 430.667969 760.171875" fill="#abcad3"/></g><g><path d="M 340.128906 631.457031 C 334.386719 631.457031 329.714844 636.128906 329.714844 641.871094 L 329.714844 735.992188 C 329.714844 741.734375 334.386719 746.410156 340.128906 746.410156 L 434.25 746.410156 C 439.992188 746.410156 444.664062 741.734375 444.664062 735.992188 L 444.664062 641.871094 C 444.664062 636.128906 439.992188 631.457031 434.25 631.457031 Z M 434.25 750.984375 L 340.128906 750.984375 C 331.863281 750.984375 325.136719 744.257812 325.136719 735.992188 L 325.136719 641.871094 C 325.136719 633.605469 331.863281 626.878906 340.128906 626.878906 L 434.25 626.878906 C 442.515625 626.878906 449.242188 633.605469 449.242188 641.871094 L 449.242188 735.992188 C 449.242188 744.257812 442.515625 750.984375 434.25 750.984375" fill="#fff"/></g><g><path d="M 407.445312 673.3125 C 407.445312 674.6875 407.285156 676.128906 406.960938 677.644531 C 406.636719 679.164062 406.109375 680.570312 405.390625 681.871094 C 404.667969 683.171875 403.726562 684.253906 402.574219 685.121094 C 401.417969 685.988281 400.007812 686.421875 398.347656 686.421875 C 395.820312 686.421875 393.941406 685.96875 392.714844 685.066406 C 391.484375 684.164062 390.617188 683.027344 390.113281 681.652344 C 389.609375 680.28125 389.339844 678.820312 389.304688 677.265625 C 389.265625 675.714844 389.210938 674.253906 389.140625 672.878906 C 389.066406 671.507812 388.832031 670.371094 388.433594 669.46875 C 388.039062 668.566406 387.191406 668.113281 385.890625 668.113281 C 384.445312 668.113281 383.179688 668.636719 382.097656 669.683594 C 381.015625 670.730469 380.074219 672.085938 379.28125 673.746094 C 378.484375 675.410156 377.820312 677.285156 377.277344 679.378906 C 376.734375 681.476562 376.304688 683.550781 375.976562 685.609375 C 375.652344 687.667969 375.417969 689.617188 375.273438 691.457031 C 375.128906 693.300781 375.058594 694.800781 375.058594 695.953125 C 375.058594 697.46875 375.109375 699.277344 375.21875 701.371094 C 375.328125 703.464844 375.671875 705.46875 376.25 707.382812 C 376.824219 709.296875 377.691406 710.921875 378.847656 712.257812 C 380.003906 713.59375 381.664062 714.261719 383.832031 714.261719 C 385.273438 714.261719 386.683594 714.082031 388.054688 713.71875 C 389.429688 713.359375 390.800781 712.945312 392.175781 712.472656 C 393.542969 712.003906 394.933594 711.589844 396.34375 711.226562 C 397.753906 710.867188 399.179688 710.6875 400.621094 710.6875 C 402.28125 710.6875 403.65625 711.355469 404.738281 712.691406 C 405.824219 714.027344 406.363281 715.527344 406.363281 717.1875 C 406.363281 719.5 405.640625 721.644531 404.199219 723.632812 C 402.753906 725.617188 400.964844 727.367188 398.835938 728.886719 C 396.703125 730.402344 394.394531 731.59375 391.902344 732.460938 C 389.410156 733.328125 387.152344 733.761719 385.132812 733.761719 C 379.933594 733.761719 375.527344 732.585938 371.914062 730.238281 C 368.304688 727.894531 365.378906 724.859375 363.140625 721.140625 C 360.902344 717.421875 359.296875 713.269531 358.320312 708.683594 C 357.34375 704.097656 356.855469 699.527344 356.855469 694.980469 C 356.855469 691.945312 357.144531 688.625 357.722656 685.011719 C 358.300781 681.402344 359.167969 677.773438 360.324219 674.125 C 361.476562 670.480469 362.941406 666.960938 364.710938 663.5625 C 366.480469 660.167969 368.558594 657.171875 370.941406 654.570312 C 373.324219 651.972656 376.011719 649.878906 379.011719 648.289062 C 382.007812 646.699219 385.308594 645.90625 388.921875 645.90625 C 392.460938 645.90625 395.425781 646.789062 397.804688 648.558594 C 400.1875 650.332031 402.101562 652.566406 403.546875 655.277344 C 404.992188 657.984375 406.003906 660.945312 406.582031 664.160156 C 407.15625 667.375 407.445312 670.425781 407.445312 673.3125" fill="#fff"/></g><g><path d="M 350.929688 618.730469 L 233.859375 618.730469 C 226.84375 618.730469 221.15625 613.042969 221.15625 606.027344 L 221.15625 488.960938 C 221.15625 481.945312 226.84375 476.257812 233.859375 476.257812 L 350.929688 476.257812 C 357.945312 476.257812 363.632812 481.945312 363.632812 488.960938 L 363.632812 606.027344 C 363.632812 613.042969 357.945312 618.730469 350.929688 618.730469" fill="#fba09f"/></g><g><path d="M 245.335938 490.019531 C 239.589844 490.019531 234.917969 494.691406 234.917969 500.433594 L 234.917969 594.554688 C 234.917969 600.296875 239.589844 604.96875 245.335938 604.96875 L 339.457031 604.96875 C 345.199219 604.96875 349.871094 600.296875 349.871094 594.554688 L 349.871094 500.433594 C 349.871094 494.691406 345.199219 490.019531 339.457031 490.019531 Z M 339.457031 609.546875 L 245.335938 609.546875 C 237.066406 609.546875 230.34375 602.820312 230.34375 594.554688 L 230.34375 500.433594 C 230.34375 492.167969 237.066406 485.441406 245.335938 485.441406 L 339.457031 485.441406 C 347.722656 485.441406 354.449219 492.167969 354.449219 500.433594 L 354.449219 594.554688 C 354.449219 602.820312 347.722656 609.546875 339.457031 609.546875" fill="#fff"/></g><g><path d="M 298.570312 544.65625 C 298.570312 543.789062 298.515625 542.363281 298.40625 540.378906 C 298.300781 538.394531 298.0625 536.40625 297.703125 534.421875 C 297.339844 532.433594 296.78125 530.664062 296.023438 529.113281 C 295.265625 527.558594 294.238281 526.78125 292.9375 526.78125 C 292.214844 526.78125 291.527344 527.269531 290.878906 528.246094 C 290.230469 529.21875 289.648438 530.449219 289.144531 531.929688 C 288.640625 533.410156 288.1875 535.054688 287.789062 536.859375 C 287.394531 538.664062 287.050781 540.398438 286.761719 542.058594 C 286.472656 543.71875 286.257812 545.21875 286.113281 546.554688 C 285.96875 547.890625 285.859375 548.847656 285.785156 549.421875 C 290.121094 549.0625 294.382812 548.523438 298.570312 547.796875 Z M 319.476562 570.980469 C 319.476562 572.425781 319.351562 574.160156 319.097656 576.179688 C 318.84375 578.203125 318.355469 580.132812 317.636719 581.976562 C 316.914062 583.816406 315.9375 585.371094 314.710938 586.636719 C 313.480469 587.898438 311.855469 588.53125 309.835938 588.53125 C 307.164062 588.53125 305.160156 587.554688 303.824219 585.605469 C 302.488281 583.65625 301.53125 581.328125 300.953125 578.617188 C 300.375 575.910156 300.03125 573.148438 299.925781 570.332031 C 299.816406 567.515625 299.722656 565.277344 299.652344 563.613281 C 294.453125 564.480469 289.324219 565.238281 284.269531 565.890625 C 284.125 567.550781 283.820312 569.609375 283.351562 572.0625 C 282.878906 574.519531 282.15625 576.886719 281.183594 579.160156 C 280.207031 581.433594 278.945312 583.402344 277.390625 585.0625 C 275.839844 586.726562 273.941406 587.554688 271.703125 587.554688 C 269.972656 587.554688 268.617188 586.925781 267.640625 585.660156 C 266.667969 584.398438 265.925781 582.898438 265.421875 581.164062 C 264.914062 579.429688 264.609375 577.644531 264.5 575.800781 C 264.390625 573.960938 264.339844 572.425781 264.339844 571.199219 C 264.339844 567.082031 264.664062 563.019531 265.3125 559.011719 C 265.964844 555.003906 266.722656 551.011719 267.589844 547.039062 C 268.019531 544.945312 268.597656 542.492188 269.320312 539.675781 C 270.042969 536.859375 270.929688 533.949219 271.976562 530.953125 C 273.019531 527.957031 274.25 524.996094 275.65625 522.070312 C 277.066406 519.144531 278.671875 516.527344 280.480469 514.214844 C 282.28125 511.90625 284.34375 510.027344 286.652344 508.585938 C 288.964844 507.140625 291.527344 506.417969 294.34375 506.417969 C 297.089844 506.417969 299.472656 507.03125 301.496094 508.257812 C 303.515625 509.488281 305.285156 511.113281 306.804688 513.132812 C 308.320312 515.15625 309.582031 517.449219 310.59375 520.011719 C 311.605469 522.578125 312.453125 525.175781 313.140625 527.8125 C 313.824219 530.449219 314.402344 533.03125 314.875 535.558594 C 315.34375 538.085938 315.757812 540.324219 316.117188 542.273438 C 317.058594 546.96875 317.851562 551.71875 318.503906 556.519531 C 319.152344 561.324219 319.476562 566.144531 319.476562 570.980469" fill="#fff"/></g><g><path d="M 237.3125 538.507812 C 237.3125 538.507812 251.496094 545.878906 245.964844 551.496094 C 244.808594 552.664062 236.804688 556.101562 234.144531 556.746094 C 235.800781 558.550781 241.4375 562.289062 238.410156 565.242188 C 232.953125 570.558594 218.652344 566.730469 218.242188 566.617188 C 218.480469 566.828125 225.996094 573.503906 220.203125 576.5 C 214.3125 579.542969 188 561.304688 188 561.304688 C 188 561.304688 178.746094 564.652344 165.109375 567.792969 L 171.449219 509.074219 C 183.683594 513.253906 193.378906 517.023438 193.378906 517.023438 C 198.585938 515.296875 203.605469 509.398438 205.394531 506.066406 C 213.351562 491.21875 222.347656 495.640625 220.273438 511.289062 C 220.273438 511.289062 217.464844 517.566406 236.421875 521.996094 C 262.710938 528.140625 237.3125 538.507812 237.3125 538.507812" fill="#ffc4a2"/></g><g><path d="M 169.738281 406.113281 C 169.738281 406.113281 122.105469 401.628906 92.1875 480.277344 C 62.265625 558.925781 150.941406 587.230469 179.785156 572.542969 C 179.785156 572.542969 188.332031 521.109375 188.332031 498.351562 C 188.332031 498.351562 166.714844 488.164062 165.773438 480.277344 C 164.828125 472.386719 169.738281 406.113281 169.738281 406.113281" fill="#73bfc9"/></g><g><path d="M 354.734375 536.972656 C 354.734375 536.972656 340.546875 544.347656 346.082031 549.964844 C 347.234375 551.132812 355.238281 554.570312 357.898438 555.214844 C 356.246094 557.015625 350.605469 560.757812 353.632812 563.710938 C 359.09375 569.027344 373.390625 565.195312 373.800781 565.085938 C 373.5625 565.296875 366.046875 571.972656 371.84375 574.96875 C 377.730469 578.011719 404.046875 559.773438 404.046875 559.773438 C 404.046875 559.773438 413.296875 563.121094 426.933594 566.261719 L 420.59375 507.542969 C 408.359375 511.722656 398.664062 515.488281 398.664062 515.488281 C 393.460938 513.765625 388.441406 507.863281 386.652344 504.535156 C 378.691406 489.6875 369.695312 494.109375 371.769531 509.757812 C 371.769531 509.757812 374.578125 516.035156 355.625 520.464844 C 329.335938 526.609375 354.734375 536.972656 354.734375 536.972656" fill="#ffc4a2"/></g><g><path d="M 423.472656 407.339844 C 423.472656 407.339844 471.101562 402.855469 501.023438 481.503906 C 530.941406 560.152344 442.269531 588.460938 413.425781 573.773438 C 413.425781 573.773438 404.878906 522.335938 404.878906 499.578125 C 404.878906 499.578125 426.492188 489.394531 427.4375 481.503906 C 428.382812 473.617188 423.472656 407.339844 423.472656 407.339844" fill="#73bfc9"/></g><g><path d="M 97.816406 220.90625 C 97.816406 220.90625 67.992188 195.457031 52.824219 218.84375 C 39.875 238.800781 38.960938 296.90625 99.003906 302.039062 L 97.816406 220.90625" fill="#ffc4a2"/></g><g><path d="M 506.527344 283.472656 C 506.527344 283.472656 542.835938 268.671875 549.898438 295.632812 C 555.925781 318.648438 538.558594 374.105469 479.9375 360.132812 L 506.527344 283.472656" fill="#ffc4a2"/></g><g><path d="M 99.453125 155.929688 C 99.453125 155.929688 37.363281 411.304688 252.1875 444.558594 C 490.347656 481.421875 508.234375 294.109375 513.144531 231.4375 C 513.144531 231.4375 552.644531 30.386719 330.996094 2.675781 C 118.777344 -23.859375 99.453125 155.929688 99.453125 155.929688" fill="#ffc4a2"/></g><g clip-path="url(#d)"><g clip-path="url(#e)"><g clip-path="url(#f)"><path d="M 341.457031 285.984375 L 349.28125 414.226562 L 481.125 406.183594 L 473.296875 277.941406 Z M 341.457031 285.984375" fill="url(#g)"/></g></g></g><g clip-path="url(#h)"><g clip-path="url(#i)"><g clip-path="url(#j)"><path d="M 93.796875 245.675781 L 101.621094 373.925781 L 233.464844 365.878906 L 225.636719 237.628906 Z M 93.796875 245.675781" fill="url(#k)"/></g></g></g><g><path d="M 272.71875 308.8125 C 278.402344 301.929688 288.566406 296.976562 297.363281 300.734375 C 299.605469 301.574219 314.210938 314.871094 308.039062 317.011719 C 305.867188 317.761719 296.066406 306.539062 292.152344 305.914062 C 286.710938 305.277344 281.234375 307.941406 276.746094 310.714844 C 275.296875 311.621094 269.992188 312.089844 272.71875 308.8125" fill="#e29a7a"/></g><g><path d="M 169.953125 170.960938 C 173.617188 162.164062 182.101562 156.03125 190.773438 152.75 C 198.765625 149.503906 207.746094 149.078125 216.070312 151.074219 C 220.8125 152.339844 220.105469 155.109375 216.011719 156.257812 C 208.101562 158.253906 200.367188 160.769531 192.890625 164.039062 C 191.667969 164.617188 167.898438 177.027344 169.953125 170.960938" fill="#a05c44"/></g><g><path d="M 442.609375 206.277344 C 441.800781 196.78125 435.589844 188.359375 428.324219 182.589844 C 421.703125 177.058594 413.277344 173.921875 404.738281 173.289062 C 399.835938 173.046875 399.667969 175.902344 403.214844 178.238281 C 410.148438 182.554688 416.746094 187.308594 422.871094 192.695312 C 423.863281 193.621094 442.71875 212.683594 442.609375 206.277344" fill="#a05c44"/></g><g><path d="M 503.34375 340.59375 C 502.160156 340.402344 501.136719 339.546875 500.78125 338.328125 C 500.289062 336.628906 501.261719 334.855469 502.957031 334.363281 C 510.894531 332.054688 520.699219 326.171875 523.46875 318.695312 C 524.839844 315 524.296875 311.351562 521.808594 307.535156 C 518.234375 302.0625 510.949219 305.78125 510.640625 305.9375 C 509.074219 306.757812 507.144531 306.148438 506.328125 304.582031 C 505.511719 303.015625 506.121094 301.085938 507.683594 300.269531 C 512.078125 297.980469 521.800781 295.824219 527.164062 304.042969 C 530.730469 309.511719 531.53125 315.347656 529.464844 320.914062 C 525.90625 330.515625 514.484375 337.675781 504.742188 340.503906 C 504.273438 340.636719 503.796875 340.664062 503.34375 340.59375" fill="#e29a7a"/></g><g><path d="M 76.773438 273.855469 C 77.953125 274.046875 79.195312 273.558594 79.914062 272.507812 C 80.917969 271.054688 80.546875 269.0625 79.09375 268.066406 C 72.28125 263.382812 64.820312 254.71875 64.535156 246.742188 C 64.398438 242.808594 66.058594 239.515625 69.613281 236.675781 C 74.722656 232.601562 80.480469 238.417969 80.722656 238.667969 C 81.949219 239.933594 83.976562 239.960938 85.242188 238.730469 C 86.507812 237.496094 86.535156 235.472656 85.304688 234.207031 C 81.851562 230.65625 73.296875 225.558594 65.625 231.679688 C 60.523438 235.746094 57.9375 241.039062 58.144531 246.976562 C 58.515625 257.210938 67.113281 267.585938 75.472656 273.335938 C 75.875 273.609375 76.320312 273.78125 76.773438 273.855469" fill="#e29a7a"/></g><g><path d="M 314.59375 48.691406 C 313.84375 51.046875 312.949219 53.332031 312.039062 55.589844 C 311.113281 57.84375 310.132812 60.0625 309.066406 62.226562 C 306.953125 66.5625 304.605469 70.742188 301.953125 74.679688 C 296.6875 82.578125 290.1875 89.480469 282.628906 94.90625 L 281.207031 95.921875 L 280.496094 96.433594 L 279.757812 96.890625 L 276.789062 98.734375 L 273.714844 100.398438 C 272.707031 100.996094 271.609375 101.40625 270.558594 101.929688 C 268.472656 102.996094 266.234375 103.722656 264.0625 104.632812 L 260.695312 105.722656 L 259.011719 106.28125 L 257.289062 106.726562 C 256.140625 107.015625 254.992188 107.332031 253.839844 107.640625 L 250.328125 108.355469 L 248.566406 108.722656 C 247.980469 108.867188 247.378906 108.90625 246.789062 109.011719 L 243.210938 109.5625 C 242.015625 109.796875 240.808594 109.855469 239.601562 110 L 235.964844 110.410156 C 234.746094 110.523438 233.527344 110.578125 232.300781 110.675781 C 231.074219 110.785156 229.84375 110.863281 228.605469 110.996094 C 238.261719 113.191406 248.410156 113.523438 258.417969 111.921875 L 260.296875 111.625 L 262.152344 111.207031 C 263.390625 110.917969 264.628906 110.628906 265.867188 110.316406 C 268.292969 109.542969 270.757812 108.84375 273.109375 107.8125 C 275.511719 106.914062 277.773438 105.6875 280.074219 104.546875 L 283.378906 102.554688 L 284.203125 102.054688 L 284.996094 101.5 L 286.574219 100.394531 C 287.097656 100.015625 287.628906 99.652344 288.136719 99.261719 L 289.632812 98.039062 C 290.625 97.222656 291.640625 96.433594 292.554688 95.523438 C 294.449219 93.789062 296.222656 91.929688 297.90625 90.003906 C 301.257812 86.125 304.125 81.871094 306.503906 77.398438 C 308.878906 72.917969 310.761719 68.21875 312.152344 63.40625 C 312.511719 62.207031 312.804688 60.984375 313.105469 59.777344 C 313.363281 58.550781 313.644531 57.339844 313.839844 56.105469 C 314.261719 53.648438 314.5625 51.171875 314.59375 48.691406" fill="#bc735c"/></g><g><path d="M 360.304688 55.644531 C 359.496094 59.6875 358.484375 63.59375 357.246094 67.402344 C 356.015625 71.207031 354.605469 74.910156 352.9375 78.457031 C 349.632812 85.566406 345.296875 92.03125 339.957031 97.5 C 337.320312 100.269531 334.351562 102.707031 331.207031 104.90625 L 330.027344 105.738281 L 329.433594 106.152344 L 328.816406 106.523438 C 327.984375 107.015625 327.167969 107.527344 326.34375 108.039062 C 325.511719 108.539062 324.632812 108.949219 323.78125 109.421875 L 322.496094 110.121094 C 322.066406 110.351562 321.613281 110.53125 321.171875 110.742188 C 320.28125 111.140625 319.394531 111.566406 318.507812 111.988281 C 317.605469 112.382812 316.675781 112.710938 315.765625 113.09375 C 313.945312 113.886719 312.046875 114.46875 310.15625 115.140625 C 309.21875 115.507812 308.246094 115.753906 307.28125 116.046875 C 306.316406 116.335938 305.347656 116.621094 304.378906 116.929688 C 303.402344 117.21875 302.414062 117.441406 301.425781 117.710938 C 300.441406 117.992188 299.445312 118.246094 298.449219 118.554688 C 306.671875 119.3125 315.101562 118.316406 323.15625 115.675781 C 323.660156 115.503906 324.175781 115.363281 324.667969 115.171875 L 326.148438 114.578125 C 327.128906 114.167969 328.125 113.792969 329.089844 113.332031 C 330.042969 112.855469 331.003906 112.382812 331.949219 111.886719 L 332.664062 111.519531 L 333.351562 111.101562 L 334.726562 110.269531 L 336.101562 109.421875 C 336.558594 109.140625 336.976562 108.800781 337.417969 108.492188 C 338.28125 107.851562 339.175781 107.246094 340.011719 106.574219 L 342.46875 104.46875 C 343.273438 103.753906 344.019531 102.972656 344.792969 102.222656 C 350.824219 96.050781 355.269531 88.4375 357.867188 80.394531 C 359.171875 76.367188 360.039062 72.230469 360.484375 68.078125 C 360.601562 67.042969 360.660156 65.996094 360.734375 64.960938 C 360.765625 63.914062 360.816406 62.882812 360.796875 61.839844 C 360.78125 59.761719 360.65625 57.683594 360.304688 55.644531" fill="#bc735c"/></g><g><path d="M 407.929688 60.359375 C 407.121094 64.402344 406.109375 68.308594 404.871094 72.117188 C 403.640625 75.925781 402.226562 79.625 400.558594 83.171875 C 397.257812 90.28125 392.921875 96.746094 387.582031 102.214844 C 384.941406 104.984375 381.976562 107.421875 378.832031 109.621094 L 377.648438 110.453125 L 377.058594 110.867188 L 376.4375 111.238281 C 375.609375 111.730469 374.789062 112.242188 373.96875 112.753906 C 373.136719 113.253906 372.257812 113.664062 371.40625 114.136719 L 370.121094 114.835938 C 369.691406 115.066406 369.238281 115.246094 368.796875 115.457031 C 367.90625 115.855469 367.019531 116.28125 366.132812 116.703125 C 365.230469 117.097656 364.300781 117.421875 363.386719 117.808594 C 361.570312 118.601562 359.667969 119.183594 357.78125 119.855469 C 356.84375 120.222656 355.871094 120.46875 354.90625 120.761719 C 353.941406 121.050781 352.972656 121.335938 352 121.644531 C 351.027344 121.933594 350.035156 122.15625 349.050781 122.425781 C 348.0625 122.707031 347.070312 122.960938 346.074219 123.265625 C 354.296875 124.027344 362.726562 123.03125 370.78125 120.390625 C 371.285156 120.21875 371.796875 120.078125 372.289062 119.886719 L 373.769531 119.292969 C 374.75 118.882812 375.75 118.507812 376.714844 118.046875 C 377.667969 117.570312 378.628906 117.097656 379.574219 116.601562 L 380.289062 116.230469 L 380.976562 115.816406 L 382.351562 114.984375 L 383.722656 114.136719 C 384.179688 113.855469 384.601562 113.515625 385.039062 113.207031 C 385.902344 112.566406 386.796875 111.960938 387.636719 111.289062 L 390.089844 109.183594 C 390.894531 108.46875 391.640625 107.6875 392.414062 106.9375 C 398.445312 100.765625 402.894531 93.152344 405.492188 85.105469 C 406.792969 81.082031 407.664062 76.945312 408.105469 72.792969 C 408.226562 71.757812 408.285156 70.710938 408.355469 69.675781 C 408.390625 68.632812 408.441406 67.597656 408.421875 66.554688 C 408.40625 64.476562 408.277344 62.398438 407.929688 60.359375" fill="#bc735c"/></g><g><path d="M 243.945312 260.394531 C 239.851562 283.496094 214.15625 288.988281 191.265625 284.902344 C 160.335938 279.378906 158.285156 261.179688 161.046875 245.59375 C 165.140625 222.488281 187.015625 207.074219 209.910156 211.160156 C 232.800781 215.25 248.042969 237.289062 243.945312 260.394531" fill="#fff"/></g><g><path d="M 245.421875 259.335938 C 242.144531 277.773438 224.539062 290.0625 206.101562 286.78125 C 187.660156 283.503906 175.371094 265.898438 178.652344 247.457031 C 181.929688 229.019531 199.539062 216.730469 217.976562 220.007812 C 236.414062 223.289062 248.703125 240.898438 245.421875 259.335938" fill="#8c6239"/></g><g><path d="M 230.511719 219.15625 C 209.441406 211.785156 184.4375 212.410156 171.59375 233.605469 C 166.421875 242.675781 163.316406 253.125 164.152344 263.65625 C 164.234375 264.746094 170.15625 282.800781 165.269531 279.144531 C 158.109375 279.578125 155.121094 259.617188 155.117188 255.652344 C 155.113281 242.429688 161.449219 227.65625 171.25 218.71875 C 182.757812 207.847656 198.851562 205.0625 213.863281 208.457031 C 218.199219 209.390625 238.148438 213.996094 230.511719 219.15625" fill="#3c2517"/></g><g><path d="M 216.742188 238.910156 C 215.859375 243.871094 219.164062 248.605469 224.128906 249.492188 C 229.089844 250.375 233.828125 247.066406 234.710938 242.105469 C 235.59375 237.144531 232.28125 232.40625 227.324219 231.523438 C 222.359375 230.640625 217.625 233.945312 216.742188 238.910156" fill="#fff"/></g><g><path d="M 225.28125 280.542969 C 214.820312 281.800781 204.207031 280.476562 194.382812 276.679688 C 190.511719 275.191406 187.9375 270.300781 188.4375 266.292969 C 188.941406 262.269531 192.328125 260.65625 196.199219 262.144531 C 206.027344 265.941406 216.636719 267.265625 227.097656 266.007812 C 231.214844 265.519531 234.101562 267.917969 233.597656 271.9375 C 233.09375 275.945312 229.398438 280.054688 225.28125 280.542969" fill="#996d48"/></g><g><path d="M 184.652344 254.417969 C 189.171875 256.351562 190.804688 258.5 191.46875 263.371094 C 191.636719 264.597656 193.308594 264.820312 193.796875 263.683594 C 195.730469 259.164062 197.875 257.527344 202.746094 256.867188 C 203.972656 256.699219 204.199219 255.027344 203.0625 254.539062 C 198.542969 252.605469 196.90625 250.460938 196.242188 245.589844 C 196.074219 244.363281 194.402344 244.136719 193.914062 245.273438 C 191.984375 249.792969 189.835938 251.429688 184.96875 252.09375 C 183.742188 252.261719 183.515625 253.933594 184.652344 254.417969" fill="#fff"/></g><g><path d="M 349.003906 273.527344 C 347.28125 296.925781 370.832031 308.578125 394.023438 310.253906 C 425.363281 312.515625 431.828125 295.378906 432.992188 279.59375 C 434.710938 256.191406 417.304688 235.863281 394.109375 234.191406 C 370.917969 232.515625 350.71875 250.125 349.003906 273.527344" fill="#fff"/></g><g><path d="M 347.828125 272.140625 C 346.46875 290.816406 360.507812 307.0625 379.183594 308.421875 C 397.867188 309.785156 414.109375 295.746094 415.46875 277.066406 C 416.832031 258.386719 402.792969 242.144531 384.113281 240.78125 C 365.4375 239.421875 349.1875 253.460938 347.828125 272.140625" fill="#8c6239"/></g><g><path d="M 372.175781 236.867188 C 394.410156 234.914062 418.492188 241.675781 425.71875 265.378906 C 428.503906 275.441406 428.9375 286.335938 425.535156 296.339844 C 425.183594 297.371094 415.003906 313.410156 420.640625 311.070312 C 427.472656 313.257812 435.28125 294.648438 436.261719 290.804688 C 439.523438 277.988281 437.019531 262.109375 429.722656 251.03125 C 421.242188 237.664062 406.328125 231.003906 390.945312 230.597656 C 386.515625 230.433594 366.042969 229.984375 372.175781 236.867188" fill="#3c2517"/></g><g><path d="M 380.65625 259.402344 C 380.292969 264.429688 375.921875 268.207031 370.894531 267.84375 C 365.867188 267.476562 362.089844 263.105469 362.457031 258.078125 C 362.820312 253.050781 367.195312 249.273438 372.21875 249.640625 C 377.246094 250.007812 381.023438 254.375 380.65625 259.402344" fill="#fff"/></g><g><path d="M 362.132812 297.652344 C 371.960938 301.449219 382.570312 302.777344 393.03125 301.515625 C 397.148438 301.027344 400.847656 296.917969 401.347656 292.910156 C 401.851562 288.890625 398.964844 286.492188 394.847656 286.980469 C 384.386719 288.238281 373.777344 286.914062 363.949219 283.117188 C 360.078125 281.628906 356.691406 283.246094 356.1875 287.265625 C 355.6875 291.273438 358.261719 296.164062 362.132812 297.652344" fill="#996d48"/></g><g><path d="M 407.941406 282.335938 C 403.085938 283.097656 400.972656 284.773438 399.128906 289.335938 C 398.664062 290.480469 396.988281 290.285156 396.796875 289.066406 C 396.035156 284.210938 394.359375 282.09375 389.800781 280.253906 C 388.652344 279.789062 388.847656 278.113281 390.066406 277.921875 C 394.925781 277.160156 397.039062 275.480469 398.882812 270.921875 C 399.34375 269.777344 401.023438 269.96875 401.214844 271.191406 C 401.972656 276.046875 403.652344 278.160156 408.210938 280.003906 C 409.355469 280.46875 409.160156 282.144531 407.941406 282.335938" fill="#fff"/></g><g><path d="M 269.234375 357.320312 C 279.703125 362.097656 291.40625 362.507812 302.1875 358.480469 C 303.191406 358.105469 303.699219 356.988281 303.324219 355.984375 C 302.953125 354.980469 301.832031 354.472656 300.828125 354.847656 C 291.019531 358.511719 280.371094 358.136719 270.84375 353.789062 C 261.316406 349.445312 254.050781 341.648438 250.386719 331.839844 C 250.011719 330.835938 248.894531 330.324219 247.890625 330.703125 C 246.886719 331.074219 246.378906 332.195312 246.753906 333.195312 C 250.78125 343.976562 258.761719 352.546875 269.234375 357.320312" fill="#ce7755"/></g></g></svg>