<?xml version="1.0" encoding="UTF-8" standalone="no"?><svg xmlns="http://www.w3.org/2000/svg" xmlns:xlink="http://www.w3.org/1999/xlink" fill="#000000" height="418.7" preserveAspectRatio="xMidYMid meet" version="1" viewBox="3.0 1.8 489.2 418.7" width="489.2" zoomAndPan="magnify"><g><g><g fill="#68c7ff" id="change1_6"><path d="M421.355,107.81c0.012,0,0.023,0,0.039,0c0,6.394-0.118,12.795,0.027,19.189 c0.186,8.105,2.884,15.343,7.411,22.103c2.213,3.294,4.221,7.088,4.989,10.922c2.6,13.051,4.611,26.221,6.855,39.344 c1.254,7.364,4.339,10.058,11.644,10.152c2.82,0.039,5.645,0.031,8.468,0.004c7.246-0.087,10.646-2.855,11.872-9.987 c1.653-9.616,2.892-19.307,4.789-28.864c1.325-6.725,1.956-14.294,5.577-19.693c5.364-8.003,8.787-16.089,8.945-25.523 c0.213-12.227,0.099-24.458,0.047-36.689c-0.035-9.234-4.133-16.104-12.952-19.125c-15.016-5.151-30.276-5.144-45.249,0.118 c-8.282,2.911-12.337,9.482-12.451,18.289C421.28,94.632,421.355,101.219,421.355,107.81z M484.463,31.059 c0.095-15.99-12.437-28.872-28.257-29.057C440.753,1.82,427.39,14.97,427.173,30.578c-0.217,15.647,12.657,28.631,28.544,28.793 C471.81,59.536,484.368,47.167,484.463,31.059z" fill="inherit"/><path clip-rule="evenodd" d="M421.355,107.81c0-6.591-0.075-13.178,0.012-19.761 c0.114-8.807,4.169-15.378,12.451-18.289c14.973-5.262,30.233-5.27,45.249-0.118c8.819,3.021,12.917,9.892,12.952,19.125 c0.052,12.231,0.166,24.462-0.047,36.689c-0.158,9.435-3.581,17.521-8.945,25.523c-3.621,5.399-4.252,12.968-5.577,19.693 c-1.897,9.557-3.136,19.248-4.789,28.864c-1.227,7.131-4.626,9.9-11.872,9.987c-2.823,0.027-5.647,0.035-8.468-0.004 c-7.305-0.095-10.39-2.789-11.644-10.152c-2.244-13.123-4.256-26.292-6.855-39.344c-0.769-3.834-2.776-7.628-4.989-10.922 c-4.527-6.76-7.226-13.998-7.411-22.103c-0.146-6.394-0.027-12.795-0.027-19.189C421.379,107.81,421.367,107.81,421.355,107.81z" fill="inherit" fill-rule="evenodd"/><path clip-rule="evenodd" d="M484.463,31.059c-0.095,16.108-12.653,28.477-28.746,28.312 c-15.887-0.162-28.761-13.146-28.544-28.793c0.217-15.607,13.58-28.757,29.033-28.576 C472.026,2.187,484.558,15.069,484.463,31.059z" fill="inherit" fill-rule="evenodd"/></g></g><g><g fill="#68c7ff" id="change1_1"><path d="M146.533,107.81c0.012,0,0.024,0,0.04,0c0,6.394-0.114,12.795,0.028,19.189 c0.185,8.105,2.887,15.343,7.415,22.103c2.208,3.294,4.216,7.088,4.985,10.922c2.604,13.051,4.611,26.221,6.855,39.344 c1.254,7.364,4.339,10.058,11.644,10.152c2.82,0.039,5.644,0.031,8.468,0.004c7.246-0.087,10.646-2.855,11.872-9.987 c1.653-9.616,2.891-19.307,4.789-28.864c1.325-6.725,1.956-14.294,5.581-19.693c5.364-8.003,8.784-16.089,8.941-25.523 c0.213-12.227,0.099-24.458,0.051-36.689c-0.04-9.234-4.133-16.104-12.957-19.125c-15.016-5.151-30.276-5.144-45.249,0.118 c-8.283,2.911-12.333,9.482-12.452,18.289C146.458,94.632,146.533,101.219,146.533,107.81z M209.641,31.059 c0.095-15.99-12.436-28.872-28.256-29.057c-15.454-0.182-28.817,12.968-29.034,28.576c-0.213,15.647,12.657,28.631,28.544,28.793 C196.987,59.536,209.546,47.167,209.641,31.059z" fill="inherit"/><path clip-rule="evenodd" d="M146.533,107.81c0-6.591-0.075-13.178,0.012-19.761 c0.118-8.807,4.169-15.378,12.452-18.289c14.972-5.262,30.232-5.27,45.249-0.118c8.823,3.021,12.917,9.892,12.957,19.125 c0.047,12.231,0.162,24.462-0.051,36.689c-0.158,9.435-3.577,17.521-8.941,25.523c-3.625,5.399-4.256,12.968-5.581,19.693 c-1.897,9.557-3.136,19.248-4.789,28.864c-1.227,7.131-4.626,9.9-11.872,9.987c-2.824,0.027-5.648,0.035-8.468-0.004 c-7.305-0.095-10.389-2.789-11.644-10.152c-2.244-13.123-4.251-26.292-6.855-39.344c-0.769-3.834-2.777-7.628-4.985-10.922 c-4.528-6.76-7.23-13.998-7.415-22.103c-0.142-6.394-0.028-12.795-0.028-19.189C146.557,107.81,146.545,107.81,146.533,107.81z" fill="inherit" fill-rule="evenodd"/><path clip-rule="evenodd" d="M209.641,31.059c-0.095,16.108-12.653,28.477-28.746,28.312 c-15.887-0.162-28.757-13.146-28.544-28.793c0.217-15.607,13.58-28.757,29.034-28.576 C197.205,2.187,209.735,15.069,209.641,31.059z" fill="inherit" fill-rule="evenodd"/></g></g><g><g fill="#68c7ff" id="change1_9"><path d="M3.03,107.81c0.012,0,0.024,0,0.04,0c0,6.394-0.118,12.795,0.028,19.189 c0.185,8.105,2.883,15.343,7.411,22.103c2.212,3.294,4.22,7.088,4.989,10.922c2.599,13.051,4.611,26.221,6.855,39.344 c1.254,7.364,4.339,10.058,11.644,10.152c2.82,0.039,5.644,0.031,8.468,0.004c7.246-0.087,10.646-2.855,11.872-9.987 c1.653-9.616,2.891-19.307,4.789-28.864c1.325-6.725,1.956-14.294,5.577-19.693c5.364-8.003,8.788-16.089,8.945-25.523 c0.213-12.227,0.099-24.458,0.047-36.689c-0.036-9.234-4.134-16.104-12.953-19.125c-15.016-5.151-30.276-5.144-45.249,0.118 C7.211,72.67,3.156,79.242,3.042,88.049C2.955,94.632,3.03,101.219,3.03,107.81z M66.138,31.059 c0.095-15.99-12.436-28.872-28.256-29.057C22.428,1.82,9.064,14.97,8.848,30.578C8.631,46.225,21.505,59.209,37.392,59.371 C53.484,59.536,66.043,47.167,66.138,31.059z" fill="inherit"/><path clip-rule="evenodd" d="M3.03,107.81c0-6.591-0.075-13.178,0.012-19.761 C3.156,79.242,7.211,72.67,15.494,69.76c14.972-5.262,30.232-5.27,45.249-0.118c8.819,3.021,12.917,9.892,12.953,19.125 c0.051,12.231,0.166,24.462-0.047,36.689c-0.158,9.435-3.582,17.521-8.945,25.523c-3.621,5.399-4.252,12.968-5.577,19.693 c-1.897,9.557-3.136,19.248-4.789,28.864c-1.227,7.131-4.626,9.9-11.872,9.987c-2.824,0.027-5.648,0.035-8.468-0.004 c-7.305-0.095-10.389-2.789-11.644-10.152c-2.244-13.123-4.256-26.292-6.855-39.344c-0.769-3.834-2.777-7.628-4.989-10.922 c-4.528-6.76-7.226-13.998-7.411-22.103c-0.146-6.394-0.028-12.795-0.028-19.189C3.054,107.81,3.042,107.81,3.03,107.81z" fill="inherit" fill-rule="evenodd"/><path clip-rule="evenodd" d="M66.138,31.059c-0.095,16.108-12.653,28.477-28.746,28.312 C21.505,59.209,8.631,46.225,8.848,30.578C9.064,14.97,22.428,1.82,37.881,2.002C53.702,2.187,66.232,15.069,66.138,31.059z" fill="inherit" fill-rule="evenodd"/></g></g><g><g fill="#68c7ff" id="change1_8"><path d="M284.19,107.81c0.016,0,0.031,0,0.043,0c0,6.394-0.114,12.795,0.032,19.189 c0.182,8.105,2.879,15.343,7.407,22.103c2.217,3.294,4.224,7.088,4.989,10.922c2.604,13.051,4.61,26.221,6.855,39.344 c1.258,7.364,4.338,10.058,11.643,10.152c2.824,0.039,5.648,0.031,8.473,0.004c7.241-0.087,10.646-2.855,11.868-9.987 c1.652-9.616,2.892-19.307,4.788-28.864c1.329-6.725,1.961-14.294,5.581-19.693c5.364-8.003,8.78-16.089,8.941-25.523 c0.214-12.227,0.106-24.458,0.052-36.689c-0.039-9.234-4.134-16.104-12.953-19.125c-15.016-5.151-30.279-5.144-45.252,0.118 c-8.283,2.911-12.338,9.482-12.452,18.289C284.119,94.632,284.19,101.219,284.19,107.81z M347.298,31.059 c0.099-15.99-12.432-28.872-28.252-29.057c-15.45-0.182-28.816,12.968-29.034,28.576c-0.213,15.647,12.653,28.631,28.541,28.793 C334.649,59.536,347.207,47.167,347.298,31.059z" fill="inherit"/><path clip-rule="evenodd" d="M284.19,107.81c0-6.591-0.071-13.178,0.016-19.761 c0.114-8.807,4.169-15.378,12.452-18.289c14.973-5.262,30.236-5.27,45.252-0.118c8.819,3.021,12.914,9.892,12.953,19.125 c0.055,12.231,0.162,24.462-0.052,36.689c-0.161,9.435-3.577,17.521-8.941,25.523c-3.62,5.399-4.252,12.968-5.581,19.693 c-1.896,9.557-3.136,19.248-4.788,28.864c-1.223,7.131-4.627,9.9-11.868,9.987c-2.824,0.027-5.648,0.035-8.473-0.004 c-7.305-0.095-10.385-2.789-11.643-10.152c-2.245-13.123-4.252-26.292-6.855-39.344c-0.766-3.834-2.772-7.628-4.989-10.922 c-4.528-6.76-7.226-13.998-7.407-22.103c-0.146-6.394-0.032-12.795-0.032-19.189C284.222,107.81,284.206,107.81,284.19,107.81z" fill="inherit" fill-rule="evenodd"/><path clip-rule="evenodd" d="M347.298,31.059c-0.091,16.108-12.648,28.477-28.745,28.312 c-15.888-0.162-28.754-13.146-28.541-28.793c0.218-15.607,13.584-28.757,29.034-28.576 C334.866,2.187,347.396,15.069,347.298,31.059z" fill="inherit" fill-rule="evenodd"/></g></g></g><g opacity="0.5"><g id="change2_2"><path d="M421.355,107.81c0.012,0,0.023,0,0.039,0c0,6.394-0.118,12.795,0.027,19.189c0.186,8.105,2.884,15.343,7.411,22.103 c2.213,3.294,4.221,7.088,4.989,10.922c2.6,13.051,4.611,26.221,6.855,39.344c1.254,7.364,4.339,10.058,11.644,10.152 c2.82,0.039,5.645,0.031,8.468,0.004c7.246-0.087,10.646-2.855,11.872-9.987c1.653-9.616,2.892-19.307,4.789-28.864 c1.325-6.725,1.956-14.294,5.577-19.693c5.364-8.003,8.787-16.089,8.945-25.523c0.213-12.227,0.099-24.458,0.047-36.689 c-0.035-9.234-4.133-16.104-12.952-19.125c-15.016-5.151-30.276-5.144-45.249,0.118c-8.282,2.911-12.337,9.482-12.451,18.289 C421.28,94.632,421.355,101.219,421.355,107.81z M484.463,31.059c0.095-15.99-12.437-28.872-28.257-29.057 C440.753,1.82,427.39,14.97,427.173,30.578c-0.217,15.647,12.657,28.631,28.544,28.793 C471.81,59.536,484.368,47.167,484.463,31.059z" fill="inherit"/><path clip-rule="evenodd" d="M421.355,107.81c0-6.591-0.075-13.178,0.012-19.761 c0.114-8.807,4.169-15.378,12.451-18.289c14.973-5.262,30.233-5.27,45.249-0.118c8.819,3.021,12.917,9.892,12.952,19.125 c0.052,12.231,0.166,24.462-0.047,36.689c-0.158,9.435-3.581,17.521-8.945,25.523c-3.621,5.399-4.252,12.968-5.577,19.693 c-1.897,9.557-3.136,19.248-4.789,28.864c-1.227,7.131-4.626,9.9-11.872,9.987c-2.823,0.027-5.647,0.035-8.468-0.004 c-7.305-0.095-10.39-2.789-11.644-10.152c-2.244-13.123-4.256-26.292-6.855-39.344c-0.769-3.834-2.776-7.628-4.989-10.922 c-4.527-6.76-7.226-13.998-7.411-22.103c-0.146-6.394-0.027-12.795-0.027-19.189C421.379,107.81,421.367,107.81,421.355,107.81z" fill="inherit" fill-rule="evenodd"/><path clip-rule="evenodd" d="M484.463,31.059c-0.095,16.108-12.653,28.477-28.746,28.312 c-15.887-0.162-28.761-13.146-28.544-28.793c0.217-15.607,13.58-28.757,29.033-28.576 C472.026,2.187,484.558,15.069,484.463,31.059z" fill="inherit" fill-rule="evenodd"/></g></g><g opacity="0.5"><g id="change2_1"><path d="M146.533,107.81c0.012,0,0.024,0,0.04,0c0,6.394-0.114,12.795,0.028,19.189c0.185,8.105,2.887,15.343,7.415,22.103 c2.208,3.294,4.216,7.088,4.985,10.922c2.604,13.051,4.611,26.221,6.855,39.344c1.254,7.364,4.339,10.058,11.644,10.152 c2.82,0.039,5.644,0.031,8.468,0.004c7.246-0.087,10.646-2.855,11.872-9.987c1.653-9.616,2.891-19.307,4.789-28.864 c1.325-6.725,1.956-14.294,5.581-19.693c5.364-8.003,8.784-16.089,8.941-25.523c0.213-12.227,0.099-24.458,0.051-36.689 c-0.04-9.234-4.133-16.104-12.957-19.125c-15.016-5.151-30.276-5.144-45.249,0.118c-8.283,2.911-12.333,9.482-12.452,18.289 C146.458,94.632,146.533,101.219,146.533,107.81z M209.641,31.059c0.095-15.99-12.436-28.872-28.256-29.057 c-15.454-0.182-28.817,12.968-29.034,28.576c-0.213,15.647,12.657,28.631,28.544,28.793 C196.987,59.536,209.546,47.167,209.641,31.059z" fill="inherit"/><path clip-rule="evenodd" d="M146.533,107.81c0-6.591-0.075-13.178,0.012-19.761 c0.118-8.807,4.169-15.378,12.452-18.289c14.972-5.262,30.232-5.27,45.249-0.118c8.823,3.021,12.917,9.892,12.957,19.125 c0.047,12.231,0.162,24.462-0.051,36.689c-0.158,9.435-3.577,17.521-8.941,25.523c-3.625,5.399-4.256,12.968-5.581,19.693 c-1.897,9.557-3.136,19.248-4.789,28.864c-1.227,7.131-4.626,9.9-11.872,9.987c-2.824,0.027-5.648,0.035-8.468-0.004 c-7.305-0.095-10.389-2.789-11.644-10.152c-2.244-13.123-4.251-26.292-6.855-39.344c-0.769-3.834-2.777-7.628-4.985-10.922 c-4.528-6.76-7.23-13.998-7.415-22.103c-0.142-6.394-0.028-12.795-0.028-19.189C146.557,107.81,146.545,107.81,146.533,107.81z" fill="inherit" fill-rule="evenodd"/><path clip-rule="evenodd" d="M209.641,31.059c-0.095,16.108-12.653,28.477-28.746,28.312 c-15.887-0.162-28.757-13.146-28.544-28.793c0.217-15.607,13.58-28.757,29.034-28.576 C197.205,2.187,209.735,15.069,209.641,31.059z" fill="inherit" fill-rule="evenodd"/></g></g><g opacity="0.5"><g id="change2_9"><path d="M3.03,107.81c0.012,0,0.024,0,0.04,0c0,6.394-0.118,12.795,0.028,19.189c0.185,8.105,2.883,15.343,7.411,22.103 c2.212,3.294,4.22,7.088,4.989,10.922c2.599,13.051,4.611,26.221,6.855,39.344c1.254,7.364,4.339,10.058,11.644,10.152 c2.82,0.039,5.644,0.031,8.468,0.004c7.246-0.087,10.646-2.855,11.872-9.987c1.653-9.616,2.891-19.307,4.789-28.864 c1.325-6.725,1.956-14.294,5.577-19.693c5.364-8.003,8.788-16.089,8.945-25.523c0.213-12.227,0.099-24.458,0.047-36.689 c-0.036-9.234-4.134-16.104-12.953-19.125c-15.016-5.151-30.276-5.144-45.249,0.118C7.211,72.67,3.156,79.242,3.042,88.049 C2.955,94.632,3.03,101.219,3.03,107.81z M66.138,31.059c0.095-15.99-12.436-28.872-28.256-29.057 C22.428,1.82,9.064,14.97,8.848,30.578C8.631,46.225,21.505,59.209,37.392,59.371C53.484,59.536,66.043,47.167,66.138,31.059z" fill="inherit"/><path clip-rule="evenodd" d="M3.03,107.81c0-6.591-0.075-13.178,0.012-19.761 C3.156,79.242,7.211,72.67,15.494,69.76c14.972-5.262,30.232-5.27,45.249-0.118c8.819,3.021,12.917,9.892,12.953,19.125 c0.051,12.231,0.166,24.462-0.047,36.689c-0.158,9.435-3.582,17.521-8.945,25.523c-3.621,5.399-4.252,12.968-5.577,19.693 c-1.897,9.557-3.136,19.248-4.789,28.864c-1.227,7.131-4.626,9.9-11.872,9.987c-2.824,0.027-5.648,0.035-8.468-0.004 c-7.305-0.095-10.389-2.789-11.644-10.152c-2.244-13.123-4.256-26.292-6.855-39.344c-0.769-3.834-2.777-7.628-4.989-10.922 c-4.528-6.76-7.226-13.998-7.411-22.103c-0.146-6.394-0.028-12.795-0.028-19.189C3.054,107.81,3.042,107.81,3.03,107.81z" fill="inherit" fill-rule="evenodd"/><path clip-rule="evenodd" d="M66.138,31.059c-0.095,16.108-12.653,28.477-28.746,28.312 C21.505,59.209,8.631,46.225,8.848,30.578C9.064,14.97,22.428,1.82,37.881,2.002C53.702,2.187,66.232,15.069,66.138,31.059z" fill="inherit" fill-rule="evenodd"/></g></g><g opacity="0.5"><g id="change2_4"><path d="M284.19,107.81c0.016,0,0.031,0,0.043,0c0,6.394-0.114,12.795,0.032,19.189c0.182,8.105,2.879,15.343,7.407,22.103 c2.217,3.294,4.224,7.088,4.989,10.922c2.604,13.051,4.61,26.221,6.855,39.344c1.258,7.364,4.338,10.058,11.643,10.152 c2.824,0.039,5.648,0.031,8.473,0.004c7.241-0.087,10.646-2.855,11.868-9.987c1.652-9.616,2.892-19.307,4.788-28.864 c1.329-6.725,1.961-14.294,5.581-19.693c5.364-8.003,8.78-16.089,8.941-25.523c0.214-12.227,0.106-24.458,0.052-36.689 c-0.039-9.234-4.134-16.104-12.953-19.125c-15.016-5.151-30.279-5.144-45.252,0.118c-8.283,2.911-12.338,9.482-12.452,18.289 C284.119,94.632,284.19,101.219,284.19,107.81z M347.298,31.059c0.099-15.99-12.432-28.872-28.252-29.057 c-15.45-0.182-28.816,12.968-29.034,28.576c-0.213,15.647,12.653,28.631,28.541,28.793 C334.649,59.536,347.207,47.167,347.298,31.059z" fill="inherit"/><path clip-rule="evenodd" d="M284.19,107.81c0-6.591-0.071-13.178,0.016-19.761 c0.114-8.807,4.169-15.378,12.452-18.289c14.973-5.262,30.236-5.27,45.252-0.118c8.819,3.021,12.914,9.892,12.953,19.125 c0.055,12.231,0.162,24.462-0.052,36.689c-0.161,9.435-3.577,17.521-8.941,25.523c-3.62,5.399-4.252,12.968-5.581,19.693 c-1.896,9.557-3.136,19.248-4.788,28.864c-1.223,7.131-4.627,9.9-11.868,9.987c-2.824,0.027-5.648,0.035-8.473-0.004 c-7.305-0.095-10.385-2.789-11.643-10.152c-2.245-13.123-4.252-26.292-6.855-39.344c-0.766-3.834-2.772-7.628-4.989-10.922 c-4.528-6.76-7.226-13.998-7.407-22.103c-0.146-6.394-0.032-12.795-0.032-19.189C284.222,107.81,284.206,107.81,284.19,107.81z" fill="inherit" fill-rule="evenodd"/><path clip-rule="evenodd" d="M347.298,31.059c-0.091,16.108-12.648,28.477-28.745,28.312 c-15.888-0.162-28.754-13.146-28.541-28.793c0.218-15.607,13.584-28.757,29.034-28.576 C334.866,2.187,347.396,15.069,347.298,31.059z" fill="inherit" fill-rule="evenodd"/></g></g><g><g><g fill="#68c7ff" id="change1_4"><path d="M369.212,170.148c0.013,0,0.028,0,0.044,0c0,7.194-0.13,14.396,0.035,21.59 c0.205,9.119,3.242,17.26,8.338,24.865c2.489,3.707,4.745,7.975,5.613,12.29c2.923,14.681,5.183,29.495,7.707,44.258 c1.416,8.287,4.883,11.316,13.099,11.423c3.175,0.043,6.351,0.035,9.529,0.004c8.148-0.095,11.979-3.211,13.355-11.233 c1.857-10.818,3.254-21.717,5.388-32.473c1.49-7.561,2.2-16.08,6.275-22.154c6.034-9.005,9.884-18.101,10.062-28.714 c0.24-13.757,0.114-27.515,0.055-41.276c-0.043-10.385-4.65-18.116-14.573-21.516c-16.89-5.79-34.062-5.786-50.904,0.134 c-9.32,3.273-13.876,10.665-14.01,20.573C369.13,155.326,369.212,162.741,369.212,170.148z M440.208,83.805 c0.107-17.99-13.989-32.481-31.79-32.686C391.036,50.914,376,65.705,375.756,83.265c-0.24,17.603,14.238,32.208,32.114,32.39 C425.974,115.844,440.102,101.929,440.208,83.805z" fill="inherit"/><path clip-rule="evenodd" d="M369.212,170.148c0-7.407-0.082-14.823,0.013-22.23 c0.134-9.908,4.689-17.299,14.01-20.573c16.842-5.92,34.015-5.924,50.904-0.134c9.923,3.4,14.53,11.13,14.573,21.516 c0.06,13.761,0.186,27.519-0.055,41.276c-0.178,10.614-4.027,19.709-10.062,28.714c-4.075,6.074-4.785,14.594-6.275,22.154 c-2.134,10.756-3.53,21.654-5.388,32.473c-1.377,8.022-5.207,11.139-13.355,11.233c-3.179,0.031-6.354,0.039-9.529-0.004 c-8.216-0.106-11.683-3.136-13.099-11.423c-2.524-14.763-4.784-29.577-7.707-44.258c-0.868-4.315-3.124-8.583-5.613-12.29 c-5.096-7.604-8.133-15.746-8.338-24.865c-0.165-7.194-0.035-14.396-0.035-21.59C369.24,170.148,369.225,170.148,369.212,170.148 z" fill="inherit" fill-rule="evenodd"/><path clip-rule="evenodd" d="M440.208,83.805c-0.106,18.124-14.234,32.039-32.338,31.85 c-17.876-0.182-32.354-14.787-32.114-32.39c0.244-17.56,15.28-32.351,32.662-32.146 C426.219,51.324,440.315,65.815,440.208,83.805z" fill="inherit" fill-rule="evenodd"/></g></g><g><g fill="#68c7ff" id="change1_3"><path d="M211.828,170.148c0.016,0,0.032,0,0.047,0c0,7.194-0.13,14.396,0.032,21.59 c0.205,9.119,3.242,17.26,8.338,24.865c2.493,3.707,4.749,7.975,5.609,12.29c2.931,14.681,5.19,29.495,7.715,44.258 c1.412,8.287,4.883,11.316,13.099,11.423c3.175,0.043,6.354,0.035,9.529,0.004c8.148-0.095,11.979-3.211,13.351-11.233 c1.862-10.818,3.254-21.717,5.388-32.473c1.495-7.561,2.209-16.08,6.279-22.154c6.035-9.005,9.877-18.101,10.059-28.714 c0.24-13.757,0.118-27.515,0.059-41.276c-0.043-10.385-4.65-18.116-14.574-21.516c-16.889-5.79-34.062-5.786-50.904,0.134 c-9.32,3.273-13.884,10.665-14.01,20.573C211.746,155.326,211.828,162.741,211.828,170.148z M282.824,83.805 c0.11-17.99-13.986-32.481-31.786-32.686c-17.382-0.205-32.418,14.586-32.662,32.146c-0.241,17.603,14.234,32.208,32.106,32.39 C268.594,115.844,282.722,101.929,282.824,83.805z" fill="inherit"/><path clip-rule="evenodd" d="M211.828,170.148c0-7.407-0.083-14.823,0.016-22.23 c0.126-9.908,4.689-17.299,14.01-20.573c16.842-5.92,34.015-5.924,50.904-0.134c9.924,3.4,14.531,11.13,14.574,21.516 c0.06,13.761,0.182,27.519-0.059,41.276c-0.182,10.614-4.023,19.709-10.059,28.714c-4.07,6.074-4.784,14.594-6.279,22.154 c-2.134,10.756-3.525,21.654-5.388,32.473c-1.372,8.022-5.202,11.139-13.351,11.233c-3.176,0.031-6.354,0.039-9.529-0.004 c-8.216-0.106-11.687-3.136-13.099-11.423c-2.524-14.763-4.784-29.577-7.715-44.258c-0.86-4.315-3.116-8.583-5.609-12.29 c-5.096-7.604-8.133-15.746-8.338-24.865c-0.162-7.194-0.032-14.396-0.032-21.59C211.86,170.148,211.844,170.148,211.828,170.148 z" fill="inherit" fill-rule="evenodd"/><path clip-rule="evenodd" d="M282.824,83.805c-0.103,18.124-14.23,32.039-32.342,31.85 c-17.872-0.182-32.347-14.787-32.106-32.39c0.244-17.56,15.28-32.351,32.662-32.146 C268.838,51.324,282.935,65.815,282.824,83.805z" fill="inherit" fill-rule="evenodd"/></g></g><g><g fill="#68c7ff" id="change1_2"><path d="M60.04,170.148c0.012,0,0.023,0,0.043,0c0,7.194-0.13,14.396,0.032,21.59 c0.209,9.119,3.246,17.26,8.342,24.865c2.485,3.707,4.741,7.975,5.608,12.29c2.927,14.681,5.187,29.495,7.711,44.258 c1.412,8.287,4.879,11.316,13.099,11.423c3.171,0.043,6.35,0.035,9.529,0.004c8.148-0.095,11.975-3.211,13.355-11.233 c1.858-10.818,3.25-21.717,5.388-32.473c1.491-7.561,2.201-16.08,6.275-22.154c6.035-9.005,9.88-18.101,10.062-28.714 c0.237-13.757,0.11-27.515,0.056-41.276c-0.043-10.385-4.65-18.116-14.578-21.516c-16.889-5.79-34.059-5.786-50.904,0.134 c-9.316,3.273-13.876,10.665-14.006,20.573C59.953,155.326,60.04,162.741,60.04,170.148z M131.036,83.805 c0.103-17.99-13.994-32.481-31.791-32.686c-17.386-0.205-32.417,14.586-32.662,32.146c-0.241,17.603,14.239,32.208,32.11,32.39 C116.797,115.844,130.926,101.929,131.036,83.805z" fill="inherit"/><path clip-rule="evenodd" d="M60.04,170.148c0-7.407-0.087-14.823,0.012-22.23 c0.13-9.908,4.689-17.299,14.006-20.573c16.846-5.92,34.015-5.924,50.904-0.134c9.928,3.4,14.535,11.13,14.578,21.516 c0.055,13.761,0.181,27.519-0.056,41.276c-0.181,10.614-4.027,19.709-10.062,28.714c-4.074,6.074-4.784,14.594-6.275,22.154 c-2.138,10.756-3.53,21.654-5.388,32.473c-1.38,8.022-5.207,11.139-13.355,11.233c-3.179,0.031-6.358,0.039-9.529-0.004 c-8.22-0.106-11.687-3.136-13.099-11.423c-2.524-14.763-4.784-29.577-7.711-44.258c-0.868-4.315-3.124-8.583-5.608-12.29 c-5.096-7.604-8.133-15.746-8.342-24.865c-0.162-7.194-0.032-14.396-0.032-21.59C60.063,170.148,60.052,170.148,60.04,170.148z" fill="inherit" fill-rule="evenodd"/><path clip-rule="evenodd" d="M131.036,83.805c-0.11,18.124-14.239,32.039-32.343,31.85 c-17.871-0.182-32.351-14.787-32.11-32.39c0.245-17.56,15.276-32.351,32.662-32.146 C117.042,51.324,131.139,65.815,131.036,83.805z" fill="inherit" fill-rule="evenodd"/></g></g></g><g opacity="0.3"><g id="change2_3"><path d="M369.212,170.148c0.013,0,0.028,0,0.044,0c0,7.194-0.13,14.396,0.035,21.59c0.205,9.119,3.242,17.26,8.338,24.865 c2.489,3.707,4.745,7.975,5.613,12.29c2.923,14.681,5.183,29.495,7.707,44.258c1.416,8.287,4.883,11.316,13.099,11.423 c3.175,0.043,6.351,0.035,9.529,0.004c8.148-0.095,11.979-3.211,13.355-11.233c1.857-10.818,3.254-21.717,5.388-32.473 c1.49-7.561,2.2-16.08,6.275-22.154c6.034-9.005,9.884-18.101,10.062-28.714c0.24-13.757,0.114-27.515,0.055-41.276 c-0.043-10.385-4.65-18.116-14.573-21.516c-16.89-5.79-34.062-5.786-50.904,0.134c-9.32,3.273-13.876,10.665-14.01,20.573 C369.13,155.326,369.212,162.741,369.212,170.148z M440.208,83.805c0.107-17.99-13.989-32.481-31.79-32.686 C391.036,50.914,376,65.705,375.756,83.265c-0.24,17.603,14.238,32.208,32.114,32.39 C425.974,115.844,440.102,101.929,440.208,83.805z" fill="inherit"/><path clip-rule="evenodd" d="M369.212,170.148c0-7.407-0.082-14.823,0.013-22.23 c0.134-9.908,4.689-17.299,14.01-20.573c16.842-5.92,34.015-5.924,50.904-0.134c9.923,3.4,14.53,11.13,14.573,21.516 c0.06,13.761,0.186,27.519-0.055,41.276c-0.178,10.614-4.027,19.709-10.062,28.714c-4.075,6.074-4.785,14.594-6.275,22.154 c-2.134,10.756-3.53,21.654-5.388,32.473c-1.377,8.022-5.207,11.139-13.355,11.233c-3.179,0.031-6.354,0.039-9.529-0.004 c-8.216-0.106-11.683-3.136-13.099-11.423c-2.524-14.763-4.784-29.577-7.707-44.258c-0.868-4.315-3.124-8.583-5.613-12.29 c-5.096-7.604-8.133-15.746-8.338-24.865c-0.165-7.194-0.035-14.396-0.035-21.59C369.24,170.148,369.225,170.148,369.212,170.148z" fill="inherit" fill-rule="evenodd"/><path clip-rule="evenodd" d="M440.208,83.805c-0.106,18.124-14.234,32.039-32.338,31.85 c-17.876-0.182-32.354-14.787-32.114-32.39c0.244-17.56,15.28-32.351,32.662-32.146C426.219,51.324,440.315,65.815,440.208,83.805 z" fill="inherit" fill-rule="evenodd"/></g></g><g opacity="0.3"><g id="change2_7"><path d="M211.828,170.148c0.016,0,0.032,0,0.047,0c0,7.194-0.13,14.396,0.032,21.59c0.205,9.119,3.242,17.26,8.338,24.865 c2.493,3.707,4.749,7.975,5.609,12.29c2.931,14.681,5.19,29.495,7.715,44.258c1.412,8.287,4.883,11.316,13.099,11.423 c3.175,0.043,6.354,0.035,9.529,0.004c8.148-0.095,11.979-3.211,13.351-11.233c1.862-10.818,3.254-21.717,5.388-32.473 c1.495-7.561,2.209-16.08,6.279-22.154c6.035-9.005,9.877-18.101,10.059-28.714c0.24-13.757,0.118-27.515,0.059-41.276 c-0.043-10.385-4.65-18.116-14.574-21.516c-16.889-5.79-34.062-5.786-50.904,0.134c-9.32,3.273-13.884,10.665-14.01,20.573 C211.746,155.326,211.828,162.741,211.828,170.148z M282.824,83.805c0.11-17.99-13.986-32.481-31.786-32.686 c-17.382-0.205-32.418,14.586-32.662,32.146c-0.241,17.603,14.234,32.208,32.106,32.39 C268.594,115.844,282.722,101.929,282.824,83.805z" fill="inherit"/><path clip-rule="evenodd" d="M211.828,170.148c0-7.407-0.083-14.823,0.016-22.23 c0.126-9.908,4.689-17.299,14.01-20.573c16.842-5.92,34.015-5.924,50.904-0.134c9.924,3.4,14.531,11.13,14.574,21.516 c0.06,13.761,0.182,27.519-0.059,41.276c-0.182,10.614-4.023,19.709-10.059,28.714c-4.07,6.074-4.784,14.594-6.279,22.154 c-2.134,10.756-3.525,21.654-5.388,32.473c-1.372,8.022-5.202,11.139-13.351,11.233c-3.176,0.031-6.354,0.039-9.529-0.004 c-8.216-0.106-11.687-3.136-13.099-11.423c-2.524-14.763-4.784-29.577-7.715-44.258c-0.86-4.315-3.116-8.583-5.609-12.29 c-5.096-7.604-8.133-15.746-8.338-24.865c-0.162-7.194-0.032-14.396-0.032-21.59C211.86,170.148,211.844,170.148,211.828,170.148z" fill="inherit" fill-rule="evenodd"/><path clip-rule="evenodd" d="M282.824,83.805c-0.103,18.124-14.23,32.039-32.342,31.85 c-17.872-0.182-32.347-14.787-32.106-32.39c0.244-17.56,15.28-32.351,32.662-32.146C268.838,51.324,282.935,65.815,282.824,83.805 z" fill="inherit" fill-rule="evenodd"/></g></g><g opacity="0.3"><g id="change2_5"><path d="M60.04,170.148c0.012,0,0.023,0,0.043,0c0,7.194-0.13,14.396,0.032,21.59c0.209,9.119,3.246,17.26,8.342,24.865 c2.485,3.707,4.741,7.975,5.608,12.29c2.927,14.681,5.187,29.495,7.711,44.258c1.412,8.287,4.879,11.316,13.099,11.423 c3.171,0.043,6.35,0.035,9.529,0.004c8.148-0.095,11.975-3.211,13.355-11.233c1.858-10.818,3.25-21.717,5.388-32.473 c1.491-7.561,2.201-16.08,6.275-22.154c6.035-9.005,9.88-18.101,10.062-28.714c0.237-13.757,0.11-27.515,0.056-41.276 c-0.043-10.385-4.65-18.116-14.578-21.516c-16.889-5.79-34.059-5.786-50.904,0.134c-9.316,3.273-13.876,10.665-14.006,20.573 C59.953,155.326,60.04,162.741,60.04,170.148z M131.036,83.805c0.103-17.99-13.994-32.481-31.791-32.686 c-17.386-0.205-32.417,14.586-32.662,32.146c-0.241,17.603,14.239,32.208,32.11,32.39 C116.797,115.844,130.926,101.929,131.036,83.805z" fill="inherit"/><path clip-rule="evenodd" d="M60.04,170.148c0-7.407-0.087-14.823,0.012-22.23 c0.13-9.908,4.689-17.299,14.006-20.573c16.846-5.92,34.015-5.924,50.904-0.134c9.928,3.4,14.535,11.13,14.578,21.516 c0.055,13.761,0.181,27.519-0.056,41.276c-0.181,10.614-4.027,19.709-10.062,28.714c-4.074,6.074-4.784,14.594-6.275,22.154 c-2.138,10.756-3.53,21.654-5.388,32.473c-1.38,8.022-5.207,11.139-13.355,11.233c-3.179,0.031-6.358,0.039-9.529-0.004 c-8.22-0.106-11.687-3.136-13.099-11.423c-2.524-14.763-4.784-29.577-7.711-44.258c-0.868-4.315-3.124-8.583-5.608-12.29 c-5.096-7.604-8.133-15.746-8.342-24.865c-0.162-7.194-0.032-14.396-0.032-21.59C60.063,170.148,60.052,170.148,60.04,170.148z" fill="inherit" fill-rule="evenodd"/><path clip-rule="evenodd" d="M131.036,83.805c-0.11,18.124-14.239,32.039-32.343,31.85 c-17.871-0.182-32.351-14.787-32.11-32.39c0.245-17.56,15.276-32.351,32.662-32.146C117.042,51.324,131.139,65.815,131.036,83.805 z" fill="inherit" fill-rule="evenodd"/></g></g><g><g><g fill="#68c7ff" id="change1_7"><path d="M293.499,232.491c0.016,0,0.031,0,0.051,0c0,7.99-0.146,15.993,0.036,23.988 c0.229,10.129,3.604,19.177,9.265,27.625c2.765,4.118,5.273,8.863,6.236,13.655c3.25,16.313,5.762,32.776,8.566,49.177 c1.569,9.206,5.423,12.574,14.555,12.692c3.525,0.048,7.056,0.04,10.586,0.004c9.056-0.106,13.308-3.569,14.838-12.483 c2.067-12.018,3.617-24.131,5.987-36.078c1.657-8.405,2.445-17.867,6.974-24.615c6.705-10.007,10.98-20.112,11.178-31.905 c0.269-15.284,0.126-30.571,0.063-45.863c-0.048-11.541-5.167-20.131-16.195-23.906c-18.767-6.437-37.845-6.429-56.561,0.15 c-10.354,3.637-15.418,11.849-15.563,22.861C293.408,216.02,293.499,224.255,293.499,232.491z M372.384,136.551 c0.118-19.985-15.545-36.09-35.321-36.318c-19.314-0.229-36.019,16.21-36.29,35.719c-0.269,19.56,15.82,35.79,35.679,35.991 C356.567,172.152,372.266,156.69,372.384,136.551z" fill="inherit"/><path clip-rule="evenodd" d="M293.499,232.491c0-8.236-0.091-16.472,0.016-24.699 c0.146-11.012,5.21-19.224,15.563-22.861c18.716-6.579,37.794-6.587,56.561-0.15c11.028,3.775,16.147,12.365,16.195,23.906 c0.062,15.292,0.205,30.579-0.063,45.863c-0.197,11.793-4.473,21.898-11.178,31.905c-4.528,6.748-5.316,16.21-6.974,24.615 c-2.37,11.947-3.92,24.061-5.987,36.078c-1.53,8.914-5.782,12.377-14.838,12.483c-3.53,0.036-7.061,0.044-10.586-0.004 c-9.132-0.118-12.985-3.486-14.555-12.692c-2.805-16.4-5.316-32.863-8.566-49.177c-0.963-4.792-3.472-9.537-6.236-13.655 c-5.66-8.448-9.036-17.496-9.265-27.625c-0.182-7.995-0.036-15.998-0.036-23.988C293.53,232.491,293.515,232.491,293.499,232.491 z" fill="inherit" fill-rule="evenodd"/><path clip-rule="evenodd" d="M372.384,136.551c-0.118,20.139-15.816,35.601-35.933,35.392 c-19.858-0.201-35.947-16.432-35.679-35.991c0.271-19.508,16.976-35.948,36.29-35.719 C356.839,100.461,372.502,116.566,372.384,136.551z" fill="inherit" fill-rule="evenodd"/></g></g><g><g fill="#68c7ff" id="change1_10"><path d="M122.047,232.491c0.02,0,0.036,0,0.052,0c0,7.99-0.142,15.993,0.039,23.988 c0.229,10.129,3.601,19.177,9.261,27.625c2.769,4.118,5.277,8.863,6.236,13.655c3.254,16.313,5.763,32.776,8.571,49.177 c1.57,9.206,5.423,12.574,14.554,12.692c3.526,0.048,7.056,0.04,10.586,0.004c9.056-0.106,13.308-3.569,14.838-12.483 c2.067-12.018,3.613-24.131,5.983-36.078c1.661-8.405,2.454-17.867,6.978-24.615c6.705-10.007,10.977-20.112,11.178-31.905 c0.265-15.284,0.13-30.571,0.063-45.863c-0.051-11.541-5.167-20.131-16.191-23.906c-18.771-6.437-37.849-6.429-56.564,0.15 c-10.354,3.637-15.422,11.849-15.564,22.861C121.957,216.02,122.047,224.255,122.047,232.491z M200.932,136.551 c0.123-19.985-15.54-36.09-35.316-36.318c-19.315-0.229-36.023,16.21-36.291,35.719c-0.268,19.56,15.816,35.79,35.676,35.991 C185.119,172.152,200.817,156.69,200.932,136.551z" fill="inherit"/><path clip-rule="evenodd" d="M122.047,232.491c0-8.236-0.09-16.472,0.02-24.699 c0.142-11.012,5.21-19.224,15.564-22.861c18.715-6.579,37.793-6.587,56.564-0.15c11.024,3.775,16.14,12.365,16.191,23.906 c0.067,15.292,0.201,30.579-0.063,45.863c-0.201,11.793-4.473,21.898-11.178,31.905c-4.524,6.748-5.317,16.21-6.978,24.615 c-2.37,11.947-3.917,24.061-5.983,36.078c-1.53,8.914-5.782,12.377-14.838,12.483c-3.53,0.036-7.06,0.044-10.586-0.004 c-9.131-0.118-12.984-3.486-14.554-12.692c-2.808-16.4-5.317-32.863-8.571-49.177c-0.958-4.792-3.467-9.537-6.236-13.655 c-5.66-8.448-9.032-17.496-9.261-27.625c-0.181-7.995-0.039-15.998-0.039-23.988 C122.083,232.491,122.067,232.491,122.047,232.491z" fill="inherit" fill-rule="evenodd"/><path clip-rule="evenodd" d="M200.932,136.551c-0.114,20.139-15.812,35.601-35.932,35.392 c-19.859-0.201-35.944-16.432-35.676-35.991c0.268-19.508,16.976-35.948,36.291-35.719 C185.392,100.461,201.054,116.566,200.932,136.551z" fill="inherit" fill-rule="evenodd"/></g></g></g><g opacity="0.1"><g id="change2_8"><path d="M293.499,232.491c0.016,0,0.031,0,0.051,0c0,7.99-0.146,15.993,0.036,23.988c0.229,10.129,3.604,19.177,9.265,27.625 c2.765,4.118,5.273,8.863,6.236,13.655c3.25,16.313,5.762,32.776,8.566,49.177c1.569,9.206,5.423,12.574,14.555,12.692 c3.525,0.048,7.056,0.04,10.586,0.004c9.056-0.106,13.308-3.569,14.838-12.483c2.067-12.018,3.617-24.131,5.987-36.078 c1.657-8.405,2.445-17.867,6.974-24.615c6.705-10.007,10.98-20.112,11.178-31.905c0.269-15.284,0.126-30.571,0.063-45.863 c-0.048-11.541-5.167-20.131-16.195-23.906c-18.767-6.437-37.845-6.429-56.561,0.15c-10.354,3.637-15.418,11.849-15.563,22.861 C293.408,216.02,293.499,224.255,293.499,232.491z M372.384,136.551c0.118-19.985-15.545-36.09-35.321-36.318 c-19.314-0.229-36.019,16.21-36.29,35.719c-0.269,19.56,15.82,35.79,35.679,35.991 C356.567,172.152,372.266,156.69,372.384,136.551z" fill="inherit"/><path clip-rule="evenodd" d="M293.499,232.491c0-8.236-0.091-16.472,0.016-24.699 c0.146-11.012,5.21-19.224,15.563-22.861c18.716-6.579,37.794-6.587,56.561-0.15c11.028,3.775,16.147,12.365,16.195,23.906 c0.062,15.292,0.205,30.579-0.063,45.863c-0.197,11.793-4.473,21.898-11.178,31.905c-4.528,6.748-5.316,16.21-6.974,24.615 c-2.37,11.947-3.92,24.061-5.987,36.078c-1.53,8.914-5.782,12.377-14.838,12.483c-3.53,0.036-7.061,0.044-10.586-0.004 c-9.132-0.118-12.985-3.486-14.555-12.692c-2.805-16.4-5.316-32.863-8.566-49.177c-0.963-4.792-3.472-9.537-6.236-13.655 c-5.66-8.448-9.036-17.496-9.265-27.625c-0.182-7.995-0.036-15.998-0.036-23.988C293.53,232.491,293.515,232.491,293.499,232.491z" fill="inherit" fill-rule="evenodd"/><path clip-rule="evenodd" d="M372.384,136.551c-0.118,20.139-15.816,35.601-35.933,35.392 c-19.858-0.201-35.947-16.432-35.679-35.991c0.271-19.508,16.976-35.948,36.29-35.719 C356.839,100.461,372.502,116.566,372.384,136.551z" fill="inherit" fill-rule="evenodd"/></g></g><g opacity="0.1"><g id="change2_6"><path d="M122.047,232.491c0.02,0,0.036,0,0.052,0c0,7.99-0.142,15.993,0.039,23.988c0.229,10.129,3.601,19.177,9.261,27.625 c2.769,4.118,5.277,8.863,6.236,13.655c3.254,16.313,5.763,32.776,8.571,49.177c1.57,9.206,5.423,12.574,14.554,12.692 c3.526,0.048,7.056,0.04,10.586,0.004c9.056-0.106,13.308-3.569,14.838-12.483c2.067-12.018,3.613-24.131,5.983-36.078 c1.661-8.405,2.454-17.867,6.978-24.615c6.705-10.007,10.977-20.112,11.178-31.905c0.265-15.284,0.13-30.571,0.063-45.863 c-0.051-11.541-5.167-20.131-16.191-23.906c-18.771-6.437-37.849-6.429-56.564,0.15c-10.354,3.637-15.422,11.849-15.564,22.861 C121.957,216.02,122.047,224.255,122.047,232.491z M200.932,136.551c0.123-19.985-15.54-36.09-35.316-36.318 c-19.315-0.229-36.023,16.21-36.291,35.719c-0.268,19.56,15.816,35.79,35.676,35.991 C185.119,172.152,200.817,156.69,200.932,136.551z" fill="inherit"/><path clip-rule="evenodd" d="M122.047,232.491c0-8.236-0.09-16.472,0.02-24.699 c0.142-11.012,5.21-19.224,15.564-22.861c18.715-6.579,37.793-6.587,56.564-0.15c11.024,3.775,16.14,12.365,16.191,23.906 c0.067,15.292,0.201,30.579-0.063,45.863c-0.201,11.793-4.473,21.898-11.178,31.905c-4.524,6.748-5.317,16.21-6.978,24.615 c-2.37,11.947-3.917,24.061-5.983,36.078c-1.53,8.914-5.782,12.377-14.838,12.483c-3.53,0.036-7.06,0.044-10.586-0.004 c-9.131-0.118-12.984-3.486-14.554-12.692c-2.808-16.4-5.317-32.863-8.571-49.177c-0.958-4.792-3.467-9.537-6.236-13.655 c-5.66-8.448-9.032-17.496-9.261-27.625c-0.181-7.995-0.039-15.998-0.039-23.988C122.083,232.491,122.067,232.491,122.047,232.491 z" fill="inherit" fill-rule="evenodd"/><path clip-rule="evenodd" d="M200.932,136.551c-0.114,20.139-15.812,35.601-35.932,35.392 c-19.859-0.201-35.944-16.432-35.676-35.991c0.268-19.508,16.976-35.948,36.291-35.719 C185.392,100.461,201.054,116.566,200.932,136.551z" fill="inherit" fill-rule="evenodd"/></g></g><g><g fill="#68c7ff" id="change1_5"><path d="M199.812,279.16c0.02,0,0.036,0,0.059,0c0,8.882-0.162,17.772,0.04,26.654 c0.252,11.257,4.003,21.311,10.294,30.694c3.073,4.579,5.861,9.849,6.926,15.178c3.617,18.123,6.405,36.413,9.521,54.639 c1.744,10.228,6.027,13.971,16.171,14.101c3.921,0.052,7.841,0.048,11.762,0.005c10.062-0.115,14.791-3.965,16.491-13.872 c2.295-13.352,4.015-26.81,6.646-40.086c1.846-9.34,2.726-19.851,7.751-27.349c7.45-11.119,12.199-22.349,12.424-35.451 c0.292-16.979,0.143-33.972,0.067-50.959c-0.056-12.823-5.743-22.368-17.99-26.564c-20.853-7.151-42.053-7.14-62.847,0.169 c-11.505,4.043-17.134,13.166-17.296,25.397C199.713,260.862,199.812,270.013,199.812,279.16z M287.46,172.563 c0.135-22.206-17.268-40.101-39.241-40.357c-21.46-0.252-40.021,18.017-40.321,39.691c-0.3,21.732,17.575,39.766,39.64,39.99 C269.893,212.115,287.33,194.938,287.46,172.563z" fill="inherit"/><path clip-rule="evenodd" d="M199.812,279.16c0-9.147-0.099-18.298,0.02-27.444 c0.162-12.231,5.791-21.354,17.296-25.397c20.794-7.309,41.994-7.32,62.847-0.169c12.247,4.196,17.935,13.741,17.99,26.564 c0.075,16.987,0.225,33.979-0.067,50.959c-0.225,13.103-4.974,24.332-12.424,35.451c-5.025,7.498-5.905,18.009-7.751,27.349 c-2.631,13.276-4.351,26.734-6.646,40.086c-1.7,9.907-6.43,13.757-16.491,13.872c-3.921,0.043-7.841,0.047-11.762-0.005 c-10.145-0.13-14.428-3.873-16.171-14.101c-3.116-18.226-5.904-36.516-9.521-54.639c-1.065-5.329-3.854-10.599-6.926-15.178 c-6.291-9.384-10.042-19.438-10.294-30.694c-0.201-8.882-0.04-17.772-0.04-26.654C199.847,279.16,199.831,279.16,199.812,279.16z" fill="inherit" fill-rule="evenodd"/><path clip-rule="evenodd" d="M287.46,172.563c-0.13,22.375-17.567,39.552-39.923,39.324 c-22.064-0.225-39.939-18.258-39.64-39.99c0.3-21.674,18.861-39.943,40.321-39.691 C270.192,132.462,287.595,150.357,287.46,172.563z" fill="inherit" fill-rule="evenodd"/></g></g><g opacity="0.4"><g fill="#ffffff" id="change3_1"><path d="M199.812,279.16c0.02,0,0.036,0,0.059,0c0,8.882-0.162,17.772,0.04,26.654 c0.252,11.257,4.003,21.311,10.294,30.694c3.073,4.579,5.861,9.849,6.926,15.178c3.617,18.123,6.405,36.413,9.521,54.639 c1.744,10.228,6.027,13.971,16.171,14.101c3.921,0.052,7.841,0.048,11.762,0.005c10.062-0.115,14.791-3.965,16.491-13.872 c2.295-13.352,4.015-26.81,6.646-40.086c1.846-9.34,2.726-19.851,7.751-27.349c7.45-11.119,12.199-22.349,12.424-35.451 c0.292-16.979,0.143-33.972,0.067-50.959c-0.056-12.823-5.743-22.368-17.99-26.564c-20.853-7.151-42.053-7.14-62.847,0.169 c-11.505,4.043-17.134,13.166-17.296,25.397C199.713,260.862,199.812,270.013,199.812,279.16z M287.46,172.563 c0.135-22.206-17.268-40.101-39.241-40.357c-21.46-0.252-40.021,18.017-40.321,39.691c-0.3,21.732,17.575,39.766,39.64,39.99 C269.893,212.115,287.33,194.938,287.46,172.563z" fill="inherit"/><path clip-rule="evenodd" d="M199.812,279.16c0-9.147-0.099-18.298,0.02-27.444 c0.162-12.231,5.791-21.354,17.296-25.397c20.794-7.309,41.994-7.32,62.847-0.169c12.247,4.196,17.935,13.741,17.99,26.564 c0.075,16.987,0.225,33.979-0.067,50.959c-0.225,13.103-4.974,24.332-12.424,35.451c-5.025,7.498-5.905,18.009-7.751,27.349 c-2.631,13.276-4.351,26.734-6.646,40.086c-1.7,9.907-6.43,13.757-16.491,13.872c-3.921,0.043-7.841,0.047-11.762-0.005 c-10.145-0.13-14.428-3.873-16.171-14.101c-3.116-18.226-5.904-36.516-9.521-54.639c-1.065-5.329-3.854-10.599-6.926-15.178 c-6.291-9.384-10.042-19.438-10.294-30.694c-0.201-8.882-0.04-17.772-0.04-26.654C199.847,279.16,199.831,279.16,199.812,279.16z" fill="inherit" fill-rule="evenodd"/><path clip-rule="evenodd" d="M287.46,172.563c-0.13,22.375-17.567,39.552-39.923,39.324 c-22.064-0.225-39.939-18.258-39.64-39.99c0.3-21.674,18.861-39.943,40.321-39.691 C270.192,132.462,287.595,150.357,287.46,172.563z" fill="inherit" fill-rule="evenodd"/></g></g></svg>